<svg width="224" height="145" viewBox="0 0 224 145" fill="none" xmlns="http://www.w3.org/2000/svg">
<g clip-path="url(#clip0_3455_5409)">
<path d="M204.312 144.571L197.914 125.295C197.914 125.295 204.951 132.321 204.951 138.086L203.688 124.755C203.688 124.755 207.297 129.619 206.936 137.005C206.575 144.391 204.312 144.571 204.312 144.571Z" fill="#E6E6E6"/>
<path d="M66.9226 127.02L60.6787 108.207C60.6787 108.207 67.5466 115.064 67.5466 120.69L66.3139 107.68C66.3139 107.68 69.8359 112.427 69.4837 119.635C69.1315 126.844 66.9226 127.02 66.9226 127.02Z" fill="#E6E6E6"/>
<path d="M164.378 135.701C164.388 148.076 139.804 144.269 109.708 144.295C79.6111 144.321 55.3989 148.17 55.3882 135.795C55.3775 123.42 79.9525 120.707 110.049 120.681C140.146 120.655 164.367 123.326 164.378 135.701Z" fill="#E6E6E6"/>
<path d="M224 144.288H0V144.854H224V144.288Z" fill="#3F3D56"/>
<path d="M143.285 118.988H139.351L137.478 103.836H143.285V118.988Z" fill="#A0616A"/>
<path d="M136.103 117.866H144.129V122.636H131.762V122.2C131.762 121.05 132.22 119.948 133.034 119.135C133.848 118.322 134.952 117.866 136.103 117.866Z" fill="#2F2E41"/>
<path d="M172.207 141.352H168.272L166.399 126.2H172.207V141.352Z" fill="#A0616A"/>
<path d="M165.024 140.23H173.05V145H160.684V144.564C160.684 143.414 161.141 142.312 161.955 141.499C162.769 140.686 163.873 140.23 165.024 140.23Z" fill="#2F2E41"/>
<path d="M190.356 96.3374C190.628 96.008 190.825 95.6231 190.932 95.2097C191.038 94.7964 191.053 94.3646 190.975 93.9449C190.897 93.5252 190.727 93.1277 190.478 92.7804C190.23 92.4332 189.908 92.1447 189.535 91.9351L180.396 54.7677L174.553 57.2777L185.423 93.2154C185.112 93.8636 185.05 94.6033 185.248 95.2942C185.447 95.9851 185.893 96.5792 186.501 96.9641C187.109 97.3489 187.837 97.4976 188.548 97.3821C189.258 97.2667 189.902 96.8949 190.356 96.3374Z" fill="#A0616A"/>
<path d="M183.229 21.2213C182.903 20.8809 182.506 20.616 182.066 20.4454C181.626 20.2747 181.154 20.2024 180.683 20.2335C180.213 20.2646 179.754 20.3984 179.341 20.6254C178.928 20.8524 178.569 21.1672 178.291 21.5476L164.146 23.1688L166.298 28.6158L179.161 26.2122C179.832 26.6367 180.636 26.8008 181.42 26.6733C182.204 26.5458 182.914 26.1356 183.415 25.5204C183.917 24.9052 184.175 24.1278 184.14 23.3354C184.106 22.5431 183.781 21.7909 183.229 21.2213Z" fill="#A0616A"/>
<path d="M159.919 92.4829L166.091 138.732L173.773 137.153C173.773 137.153 172.644 103.471 176.485 99.4104C180.326 95.3499 171.544 88.2366 171.544 88.2366L159.919 92.4829Z" fill="#2F2E41"/>
<path d="M162.471 79.744L159.635 83.9903C159.635 83.9903 137.802 74.9317 137.802 89.369C137.802 103.806 136.553 113.604 136.101 114.281C135.649 114.958 141.329 116.714 144.04 116.262C144.04 116.262 147.385 92.9872 147.159 91.6337C147.159 91.6337 168.576 102.117 172.644 101.215C176.711 100.313 177.671 97.1185 178.349 95.3139C179.027 93.5092 178.066 79.1778 178.066 79.1778L164.509 75.0475L162.471 79.744Z" fill="#2F2E41"/>
<path d="M162.853 54.249L162.045 53.2807C162.045 53.2807 152.993 32.947 156.549 27.4601C160.106 21.9733 175.623 21.1664 176.108 21.4891C176.593 21.8119 174.95 26.0023 176.081 27.9389C176.081 27.9389 164.06 30.5408 163.252 30.8636C162.444 31.1863 169.481 43.1138 169.481 43.1138L168.672 50.3759L162.853 54.249Z" fill="#CCCCCC"/>
<path d="M178.694 44.2434C178.694 44.2434 170.289 45.2117 169.966 45.2117C169.642 45.2117 169.481 43.1138 169.481 43.1138L162.045 53.2806C162.045 53.2806 158.382 82.7759 159.352 82.2917C160.322 81.8076 178.209 84.588 178.371 83.297C178.532 82.006 178.209 75.5508 178.694 75.2281C179.179 74.9053 187.099 54.8944 187.099 54.8944C187.099 54.8944 186.291 50.6986 183.543 49.2461C180.795 47.7937 178.694 44.2434 178.694 44.2434Z" fill="#CCCCCC"/>
<path d="M184.513 52.151L187.099 54.8944C187.099 54.8944 190.942 86.4191 188.84 87.3873C186.739 88.3556 182.602 88.2366 182.602 88.2366L178.532 73.2916L184.513 52.151Z" fill="#CCCCCC"/>
<path d="M170.617 42.247C174.726 42.247 178.057 38.9214 178.057 34.8191C178.057 30.7168 174.726 27.3912 170.617 27.3912C166.508 27.3912 163.177 30.7168 163.177 34.8191C163.177 38.9214 166.508 42.247 170.617 42.247Z" fill="#A0616A"/>
<path d="M168.871 35.9782C168.771 34.4369 166.823 34.3841 165.276 34.3695C163.73 34.3549 161.88 34.41 161.005 33.1365C160.426 32.2949 160.537 31.1265 161.015 30.2242C161.493 29.3218 162.279 28.6278 163.052 27.9602C165.049 26.2365 167.106 24.5265 169.503 23.4233C171.9 22.32 174.709 21.8742 177.195 22.7598C180.249 23.8478 184.377 29.4481 184.734 32.6656C185.09 35.8831 183.802 39.1632 181.631 41.5675C179.46 43.9719 174.491 43.0018 171.364 43.8572C173.265 41.1708 172.012 36.2895 168.966 35.035L168.871 35.9782Z" fill="#2F2E41"/>
<path d="M102.564 132.059C112.428 132.059 120.425 124.075 120.425 114.227C120.425 104.379 112.428 96.3959 102.564 96.3959C92.7004 96.3959 84.7041 104.379 84.7041 114.227C84.7041 124.075 92.7004 132.059 102.564 132.059Z" fill="#88CFE0"/>
<path d="M90.6367 95.1288C88.1614 95.129 85.7391 94.4128 83.663 93.067C81.5869 91.7212 79.946 89.8035 78.939 87.546L50.5981 23.8252C49.6593 21.7144 49.1628 19.4343 49.1391 17.1249C49.1154 14.8155 49.565 12.5257 50.4603 10.3961C51.3555 8.26662 52.6776 6.3424 54.3451 4.74175C56.0126 3.1411 57.9904 1.89784 60.1569 1.0884C62.3234 0.278951 64.6328 -0.0795819 66.9432 0.0348382C69.2536 0.149258 71.5162 0.734213 73.5918 1.75375C75.6674 2.77328 77.5123 4.20585 79.0129 5.96341C80.5136 7.72096 81.6384 9.76636 82.3182 11.9739L102.84 78.6162C103.428 80.5238 103.559 82.5423 103.224 84.5097C102.888 86.477 102.095 88.3384 100.908 89.9442C99.7214 91.5501 98.1739 92.8557 96.39 93.7561C94.6061 94.6565 92.6356 95.1267 90.6367 95.1288H90.6367Z" fill="#88CFE0"/>
</g>
<defs>
<clipPath id="clip0_3455_5409">
<rect width="224" height="145" fill="white"/>
</clipPath>
</defs>
</svg>
