<svg width="96" height="40" viewBox="0 0 96 40" fill="none" xmlns="http://www.w3.org/2000/svg">
<path d="M20.1301 10.9943C20.1287 10.9906 20.1281 8.51717 20.1289 5.4978L20.1303 0.00802838H21.695H23.2598L23.2625 2.04931L23.2652 4.09058H25.5651H27.8651L27.8678 2.04931L27.8705 0.00802838H29.4353H31V5.50316V10.9983H29.4353H27.8705L27.8678 8.8928L27.8651 6.78731H25.5651H23.2652L23.2625 8.8928L23.2598 10.9983L21.6962 10.9996C20.4482 11.0007 20.1321 10.9996 20.1301 10.9943ZM23.2517 8.88851C23.2517 7.26096 23.2531 6.78533 23.2581 6.78035C23.2676 6.77099 27.8627 6.77099 27.8721 6.78035C27.8771 6.78533 27.8786 7.26096 27.8786 8.88851V10.9903H29.4353H30.9919V5.50316V0.0160568H29.4353H27.8786V2.05358C27.8786 3.63119 27.8771 4.09257 27.8721 4.09754C27.8627 4.1069 23.2676 4.1069 23.2581 4.09754C23.2531 4.09257 23.2517 3.63119 23.2517 2.05358V0.0160568H21.695H20.1384V5.50316V10.9903H21.695H23.2517V8.88851ZM20.1437 5.50316V0.0214045H21.695H23.2463V2.05981C23.2463 4.06965 23.2466 4.09831 23.2567 4.10377C23.2639 4.10756 23.9914 4.10931 25.5651 4.10931C27.1389 4.10931 27.8664 4.10755 27.8736 4.10377C27.8838 4.09831 27.884 4.06965 27.884 2.05981V0.0214045H29.4353H30.9865V5.50316V10.9849H29.4353H27.884V8.88228C27.884 6.80895 27.8837 6.77958 27.8736 6.77412C27.8664 6.77033 27.1389 6.76858 25.5651 6.76858C23.9914 6.76858 23.2639 6.77034 23.2567 6.77412C23.2464 6.77958 23.2463 6.80895 23.2463 8.88228V10.9849H21.695H20.1437V5.50316ZM0.741989 10.9853C0.741989 10.9797 0.84258 10.667 0.965524 10.2904C1.08847 9.91387 1.189 9.60126 1.18892 9.59574C1.18892 9.58865 1.0145 9.45986 0.593443 9.15581C0.26601 8.91937 -0.000957767 8.72314 0.000184034 8.71974C0.00172701 8.71511 0.18919 8.71288 0.741973 8.71088L1.48169 8.7082L1.66127 8.15975C1.76004 7.85811 1.86278 7.54434 1.88958 7.46249C1.92764 7.34628 1.94015 7.31403 1.94667 7.31534C1.95266 7.31654 2.0195 7.5139 2.18283 8.01261L2.41064 8.7082L3.15222 8.70956C3.85458 8.71084 3.89371 8.71141 3.89203 8.72027C3.89105 8.72551 3.63097 8.91701 3.30052 9.15584C2.97617 9.39027 2.70873 9.58535 2.70619 9.58933C2.70321 9.59404 2.78122 9.8404 2.92858 10.2916C3.08534 10.7716 3.15384 10.9883 3.14998 10.9921C3.14612 10.996 3.13979 10.9943 3.12954 10.9869C3.00063 10.8932 1.9689 10.1496 1.95875 10.143L1.94472 10.1339L1.34839 10.5648C1.0204 10.8017 0.749786 10.9956 0.747019 10.9956C0.744242 10.9956 0.741989 10.991 0.741989 10.9853ZM1.36062 10.5435C1.67808 10.3139 1.94084 10.1255 1.94453 10.1248C1.94822 10.124 2.21786 10.316 2.54373 10.5513C2.86961 10.7867 3.13691 10.9773 3.13773 10.9749C3.13855 10.9725 3.13689 10.9648 3.13404 10.9577C3.13029 10.9484 3.12874 10.9474 3.1285 10.9541C3.12822 10.9593 3.12698 10.9635 3.12556 10.9635C3.12413 10.9635 2.86054 10.774 2.53979 10.5423C2.21905 10.3106 1.95177 10.1211 1.94585 10.1211C1.93992 10.1211 1.67127 10.312 1.34885 10.5451C0.799198 10.9426 0.762823 10.968 0.76573 10.9516L0.768825 10.9341L0.761204 10.9528C0.750229 10.9798 0.750993 10.9817 0.768081 10.9707C0.776508 10.9653 1.04315 10.773 1.36062 10.5435ZM3.09521 10.8357C3.07949 10.7885 3.06569 10.7509 3.06456 10.752C3.06341 10.7531 3.07535 10.7927 3.09108 10.8398C3.1068 10.887 3.12059 10.9246 3.12173 10.9235C3.12285 10.9224 3.11093 10.8829 3.09521 10.8357ZM0.833142 10.7416C0.832862 10.7386 0.820797 10.7709 0.806211 10.8135C0.791626 10.8561 0.779879 10.8935 0.780106 10.8965C0.780387 10.8995 0.792453 10.8671 0.807039 10.8245C0.821624 10.7819 0.83337 10.7446 0.833142 10.7416ZM3.03327 10.6458C3.01904 10.603 3.00646 10.5689 3.00532 10.5701C3.00417 10.5712 3.0149 10.6071 3.02913 10.6499C3.04336 10.6926 3.05594 10.7267 3.05708 10.7256C3.05823 10.7244 3.0475 10.6885 3.03327 10.6458ZM0.897779 10.5436C0.897499 10.5406 0.885432 10.573 0.870847 10.6156C0.856262 10.6582 0.844516 10.6955 0.844743 10.6985C0.845024 10.7015 0.85709 10.6691 0.871676 10.6265C0.886261 10.584 0.898007 10.5466 0.897779 10.5436ZM2.96864 10.4478C2.9544 10.405 2.94183 10.371 2.94069 10.3721C2.93954 10.3732 2.95026 10.4091 2.96449 10.4519C2.97872 10.4947 2.9913 10.5287 2.99244 10.5276C2.99359 10.5264 2.98287 10.4905 2.96864 10.4478ZM0.962416 10.3456C0.962136 10.3426 0.950069 10.375 0.935484 10.4176C0.920899 10.4602 0.909153 10.4975 0.90938 10.5005C0.909661 10.5035 0.921726 10.4712 0.936311 10.4286C0.950896 10.386 0.962644 10.3487 0.962416 10.3456ZM2.904 10.2498C2.88977 10.2071 2.87719 10.173 2.87605 10.1741C2.8749 10.1753 2.88563 10.2112 2.89986 10.2539C2.91409 10.2967 2.92667 10.3307 2.92781 10.3296C2.92896 10.3285 2.91823 10.2926 2.904 10.2498ZM1.02705 10.1477C1.02677 10.1446 1.01471 10.177 1.00012 10.2196C0.985536 10.2622 0.97379 10.2995 0.974017 10.3026C0.974298 10.3056 0.986363 10.2732 1.00095 10.2306C1.01553 10.188 1.02728 10.1507 1.02705 10.1477ZM2.83936 10.0518C2.82513 10.0091 2.81255 9.97502 2.81141 9.97615C2.81026 9.9773 2.82099 10.0132 2.83522 10.0559C2.84945 10.0987 2.86203 10.1328 2.86317 10.1316C2.86432 10.1305 2.8536 10.0946 2.83936 10.0518ZM1.09169 9.94969C1.09141 9.94667 1.07934 9.97905 1.06476 10.0216C1.05017 10.0642 1.03843 10.1016 1.03865 10.1046C1.03893 10.1076 1.051 10.0752 1.06559 10.0326C1.08017 9.99003 1.09192 9.9527 1.09169 9.94969ZM2.77473 9.85386C2.76049 9.8111 2.74792 9.77705 2.74678 9.77818C2.74563 9.77932 2.75635 9.81521 2.77058 9.85797C2.78481 9.90073 2.79739 9.93479 2.79853 9.93366C2.79968 9.93251 2.78896 9.89662 2.77473 9.85386ZM1.15633 9.75171C1.15605 9.74869 1.14398 9.78107 1.12939 9.82367C1.11481 9.86626 1.10306 9.90358 1.10329 9.90661C1.10357 9.90963 1.11564 9.87724 1.13022 9.83465C1.14481 9.79205 1.15655 9.75473 1.15633 9.75171ZM2.713 9.66454C2.70037 9.62654 2.69139 9.59197 2.69302 9.58773C2.69465 9.58348 2.8908 9.43933 3.12888 9.26737C3.36697 9.09541 3.63326 8.90286 3.72066 8.83948L3.87955 8.72426L3.14164 8.72157L2.40373 8.71889L2.39145 8.68679C2.38469 8.66914 2.38059 8.66191 2.38233 8.67074C2.38407 8.67957 2.38959 8.69522 2.39459 8.70552L2.40369 8.72426L3.13408 8.72692L3.86447 8.7296L3.27551 9.15497C2.84066 9.46904 2.68653 9.5831 2.68651 9.59084C2.68651 9.60313 2.73082 9.73874 2.73388 9.7357C2.73503 9.73455 2.72563 9.70255 2.713 9.66454ZM1.20481 9.60196C1.20453 9.5989 1.1961 9.62039 1.18596 9.64971C1.17581 9.67902 1.1677 9.70551 1.16792 9.70856C1.1682 9.71162 1.17663 9.69014 1.18677 9.66083C1.19692 9.63151 1.20503 9.60502 1.20481 9.60196ZM1.20523 9.58374C1.20523 9.58118 0.940635 9.38795 0.617242 9.15435L0.0292552 8.7296L0.756644 8.72823C1.3679 8.72709 1.48502 8.7257 1.49021 8.71948C1.49687 8.71151 1.53404 8.60543 1.53343 8.59611C1.53315 8.59301 1.52293 8.61937 1.51054 8.65468L1.48801 8.71889L0.75412 8.72025C0.350478 8.72101 0.0202538 8.72341 0.0202931 8.7256C0.0202931 8.7278 0.283748 8.91982 0.605669 9.1523C0.927589 9.38479 1.19358 9.57792 1.19676 9.58148C1.20378 9.58937 1.20523 9.58975 1.20523 9.58374ZM2.34113 8.52957C2.32541 8.48241 2.31161 8.44475 2.31048 8.44587C2.30933 8.44702 2.32127 8.48652 2.337 8.53368C2.35272 8.58085 2.36651 8.61851 2.36765 8.61738C2.3688 8.61624 2.35685 8.57673 2.34113 8.52957ZM1.60341 8.38193C1.60313 8.37892 1.58984 8.41493 1.57378 8.46194C1.55771 8.50896 1.54476 8.54988 1.54499 8.5529C1.54527 8.55591 1.55854 8.51992 1.57461 8.4729C1.59068 8.42588 1.60363 8.38495 1.60341 8.38193ZM2.26841 8.30753C2.2512 8.25596 2.23619 8.21469 2.23506 8.21581C2.23393 8.21693 2.24707 8.26005 2.26428 8.31162C2.28149 8.36319 2.2965 8.40447 2.29764 8.40334C2.29876 8.40222 2.28562 8.3591 2.26841 8.30753ZM1.67881 8.15185C1.67853 8.14884 1.66404 8.18846 1.64649 8.2399C1.62895 8.29133 1.61478 8.33589 1.61501 8.33889C1.61529 8.3419 1.62978 8.30228 1.64733 8.25084C1.66487 8.1994 1.67904 8.15485 1.67881 8.15185ZM2.1957 8.08547C2.17998 8.0383 2.16618 8.00064 2.16504 8.00177C2.16389 8.00288 2.17584 8.04241 2.19156 8.08958C2.20728 8.13674 2.22108 8.17441 2.22221 8.17328C2.22337 8.17213 2.21142 8.13263 2.1957 8.08547ZM1.74884 7.93783C1.74856 7.93481 1.73528 7.97082 1.71921 8.01784C1.70315 8.06486 1.69019 8.10579 1.69042 8.10881C1.6907 8.11182 1.70398 8.07581 1.72004 8.02879C1.73611 7.98178 1.74907 7.94084 1.74884 7.93783ZM2.12298 7.86342C2.10577 7.81185 2.09076 7.77058 2.08962 7.77171C2.08847 7.77285 2.10164 7.81595 2.11885 7.86752C2.13606 7.91909 2.15107 7.96036 2.15221 7.95923C2.15333 7.95812 2.14019 7.91499 2.12298 7.86342ZM1.82425 7.70774C1.82397 7.70473 1.80948 7.74435 1.79193 7.79579C1.77438 7.84723 1.76021 7.89178 1.76044 7.89479C1.76072 7.89779 1.77522 7.85817 1.79276 7.80673C1.81031 7.7553 1.82448 7.71075 1.82425 7.70774ZM2.05026 7.64136C2.03454 7.5942 2.02075 7.55653 2.01961 7.55766C2.01846 7.55881 2.03041 7.59831 2.04613 7.64547C2.06185 7.69264 2.07565 7.7303 2.07678 7.72917C2.07791 7.72806 2.06599 7.68852 2.05026 7.64136ZM1.89427 7.49372C1.89399 7.49071 1.88071 7.52672 1.86465 7.57373C1.84858 7.62075 1.83562 7.66169 1.83585 7.6647C1.83613 7.66771 1.84941 7.6317 1.86548 7.58469C1.88154 7.53767 1.8945 7.49673 1.89427 7.49372ZM1.97907 7.42397C1.96325 7.37692 1.94816 7.33885 1.94555 7.33937C1.94076 7.34032 1.90511 7.44025 1.90587 7.45059C1.90615 7.45364 1.91452 7.43232 1.9246 7.40321C1.93467 7.37409 1.94395 7.34923 1.94522 7.34797C1.94648 7.34672 1.96045 7.38448 1.97625 7.43188C1.99205 7.47927 2.00562 7.51614 2.00641 7.51379C2.0072 7.51145 1.9949 7.47102 1.97907 7.42397ZM13.7178 10.9877C13.7178 10.9834 13.8197 10.6676 13.9443 10.286C14.0689 9.90443 14.1689 9.59027 14.1665 9.58791C14.1641 9.58554 13.8955 9.39082 13.5697 9.1552C13.2438 8.91958 12.9772 8.72382 12.9772 8.72017C12.9772 8.71495 13.134 8.71299 13.7172 8.71088C14.3675 8.70854 14.4578 8.70722 14.4618 8.70017C14.4644 8.69576 14.5672 8.38411 14.6903 8.00763C14.8134 7.63116 14.9154 7.32116 14.9169 7.31874C14.9184 7.31632 14.9226 7.31435 14.9263 7.31435C14.9304 7.31435 15.0191 7.57753 15.1584 8.00325C15.2823 8.38215 15.3859 8.69635 15.3885 8.70149C15.393 8.7103 15.4353 8.71092 16.132 8.7122C16.6445 8.71315 16.8712 8.71528 16.8725 8.71919C16.8736 8.7223 16.6102 8.91573 16.2872 9.14904C15.9643 9.38234 15.695 9.57733 15.6887 9.58234L15.6774 9.59143L15.9042 10.2861C16.0289 10.6682 16.1309 10.9841 16.1309 10.9882C16.1309 10.9923 16.1281 10.9956 16.1247 10.9956C16.1213 10.9956 15.8517 10.8026 15.5255 10.5668C15.1993 10.3309 14.9296 10.1377 14.9261 10.1374C14.9226 10.1371 14.652 10.33 14.3247 10.5662C13.9974 10.8024 13.727 10.9956 13.7237 10.9956C13.7205 10.9956 13.7178 10.9921 13.7178 10.9877ZM14.341 10.5416C14.6556 10.3145 14.9166 10.1273 14.9209 10.1257C14.9258 10.1238 15.1521 10.2841 15.5204 10.5505C15.8458 10.7859 16.1127 10.9756 16.1135 10.9722C16.1144 10.9688 16.1113 10.9564 16.1067 10.9447C16.102 10.9325 16.0996 10.9294 16.1012 10.9376C16.1027 10.9454 16.1056 10.9562 16.1076 10.9617C16.1107 10.9696 16.1099 10.9704 16.1036 10.9656C16.0994 10.9623 15.8333 10.77 15.5124 10.5382C14.9953 10.1648 14.9275 10.1174 14.9172 10.1222C14.9108 10.1252 14.6437 10.3166 14.3238 10.5477C13.9453 10.821 13.7407 10.9656 13.7381 10.9616C13.7358 10.958 13.7341 10.9607 13.734 10.9681V10.9808L13.7515 10.9676C13.7612 10.9604 14.0264 10.7687 14.341 10.5416ZM13.8036 10.763C13.8033 10.76 13.7912 10.7924 13.7766 10.8349C13.762 10.8775 13.7503 10.9149 13.7505 10.9179C13.7508 10.9209 13.7629 10.8885 13.7775 10.8459C13.792 10.8033 13.8038 10.766 13.8036 10.763ZM16.0629 10.8063C16.0487 10.7635 16.0361 10.7295 16.035 10.7306C16.0338 10.7317 16.0446 10.7676 16.0588 10.8104C16.073 10.8532 16.0856 10.8872 16.0868 10.8861C16.0879 10.8849 16.0772 10.849 16.0629 10.8063ZM13.8682 10.565C13.8679 10.562 13.8559 10.5944 13.8413 10.637C13.8267 10.6796 13.8149 10.7169 13.8152 10.7199C13.8154 10.7229 13.8275 10.6905 13.8421 10.648C13.8567 10.6054 13.8684 10.568 13.8682 10.565ZM15.9983 10.6083C15.9841 10.5655 15.9715 10.5315 15.9704 10.5326C15.9692 10.5338 15.9799 10.5697 15.9942 10.6124C16.0084 10.6552 16.021 10.6892 16.0221 10.6881C16.0233 10.687 16.0125 10.6511 15.9983 10.6083ZM13.9328 10.367C13.9326 10.364 13.9205 10.3964 13.9059 10.439C13.8913 10.4816 13.8796 10.5189 13.8798 10.5219C13.8801 10.525 13.8922 10.4926 13.9067 10.45C13.9213 10.4074 13.9331 10.3701 13.9328 10.367ZM15.9364 10.4184C15.9206 10.3712 15.9068 10.3335 15.9057 10.3347C15.9046 10.3358 15.9165 10.3753 15.9322 10.4225C15.9479 10.4696 15.9617 10.5073 15.9629 10.5062C15.964 10.505 15.9521 10.4655 15.9364 10.4184ZM13.9975 10.1691C13.9972 10.166 13.9851 10.1984 13.9705 10.241C13.956 10.2836 13.9442 10.3209 13.9444 10.324C13.9447 10.327 13.9568 10.2946 13.9714 10.252C13.986 10.2094 13.9977 10.1721 13.9975 10.1691ZM15.8717 10.2204C15.856 10.1732 15.8422 10.1356 15.8411 10.1367C15.84 10.1378 15.8519 10.1773 15.8676 10.2245C15.8833 10.2717 15.8971 10.3093 15.8982 10.3082C15.8994 10.307 15.8874 10.2675 15.8717 10.2204ZM14.0621 9.97109C14.0618 9.96807 14.0498 10.0005 14.0352 10.043C14.0206 10.0856 14.0088 10.123 14.0091 10.126C14.0094 10.129 14.0214 10.0966 14.036 10.054C14.0506 10.0114 14.0623 9.97411 14.0621 9.97109ZM15.8071 10.0224C15.7914 9.97524 15.7776 9.93758 15.7764 9.9387C15.7753 9.93985 15.7872 9.97935 15.803 10.0265C15.8187 10.0737 15.8325 10.1113 15.8336 10.1102C15.8347 10.1091 15.8228 10.0696 15.8071 10.0224ZM14.1267 9.7731C14.1265 9.77009 14.1132 9.8061 14.0971 9.85311C14.0811 9.90013 14.0681 9.94107 14.0683 9.94408C14.0686 9.94709 14.0819 9.91108 14.098 9.86407C14.114 9.81705 14.127 9.77612 14.1267 9.7731ZM15.7424 9.82443C15.7267 9.77727 15.7129 9.7396 15.7118 9.74073C15.7106 9.74187 15.7226 9.78138 15.7383 9.82854C15.754 9.8757 15.7678 9.91337 15.769 9.91224C15.7701 9.91112 15.7582 9.87159 15.7424 9.82443ZM14.1846 9.58612C14.1831 9.58213 13.9174 9.38778 13.5943 9.15424L13.0068 8.7296L13.738 8.72687C14.1402 8.72536 14.47 8.72285 14.47 8.72285C14.4749 8.71448 14.488 8.67697 14.4877 8.67196C14.4874 8.66834 14.4838 8.67476 14.4796 8.68622C14.4754 8.69768 14.4692 8.71033 14.4659 8.71432C14.4608 8.72036 14.3371 8.72157 13.7279 8.72157C13.3254 8.72157 12.9962 8.72337 12.9963 8.72558C12.9966 8.72778 13.2631 8.92197 13.5888 9.15709C13.9145 9.39222 14.181 9.58735 14.181 9.59072C14.181 9.59409 14.1701 9.62915 14.1568 9.66864C14.1435 9.70812 14.1327 9.74293 14.133 9.746C14.1333 9.74906 14.1456 9.71598 14.1604 9.67248C14.1753 9.62897 14.1862 9.59011 14.1846 9.58612ZM15.6866 9.65275C15.6756 9.62009 15.6679 9.59044 15.6693 9.58686C15.6708 9.58328 15.9375 9.38893 16.262 9.15497C16.5865 8.92101 16.8522 8.7278 16.8524 8.72559C16.8526 8.72339 16.5233 8.72157 16.1208 8.72157C15.5417 8.72157 15.3878 8.72017 15.3835 8.71488C15.3805 8.7112 15.3701 8.6836 15.3602 8.65354C15.3504 8.62347 15.3413 8.59986 15.3401 8.60104C15.3385 8.60271 15.3746 8.71713 15.3786 8.72287C15.3786 8.72287 15.7084 8.72538 16.1104 8.72688L16.8414 8.7296L16.2569 9.15221C15.9354 9.38464 15.6696 9.57803 15.6663 9.58197C15.6618 9.58738 15.6655 9.6048 15.6812 9.65283C15.6927 9.68785 15.7031 9.71552 15.7043 9.71432C15.7055 9.71312 15.6975 9.6854 15.6866 9.65275ZM14.5577 8.45684C14.5574 8.45383 14.5441 8.48984 14.528 8.53685C14.512 8.58387 14.499 8.62479 14.4992 8.62781C14.4995 8.63082 14.5128 8.59482 14.5289 8.54781C14.5449 8.50079 14.5579 8.45985 14.5577 8.45684ZM15.2981 8.46269C15.2809 8.41112 15.2659 8.36985 15.2647 8.37098C15.2636 8.37209 15.2767 8.41522 15.2939 8.46679C15.3112 8.51836 15.3262 8.55963 15.3273 8.5585C15.3284 8.55736 15.3153 8.51426 15.2981 8.46269ZM14.6331 8.22677C14.6328 8.22376 14.6195 8.25976 14.6034 8.30678C14.5874 8.3538 14.5744 8.39472 14.5746 8.39773C14.5749 8.40074 14.5882 8.36475 14.6043 8.31773C14.6203 8.27072 14.6333 8.22978 14.6331 8.22677ZM15.2254 8.24063C15.2096 8.19347 15.1958 8.15581 15.1947 8.15693C15.1936 8.15805 15.2055 8.19758 15.2212 8.24474C15.2369 8.29191 15.2507 8.32957 15.2519 8.32844C15.253 8.3273 15.2411 8.28779 15.2254 8.24063ZM14.7085 7.99668C14.7082 7.99367 14.6937 8.03329 14.6762 8.08473C14.6586 8.13617 14.6444 8.18071 14.6447 8.18371C14.6449 8.18672 14.6594 8.1471 14.677 8.09566C14.6945 8.04422 14.7087 7.99969 14.7085 7.99668ZM15.1526 8.01859C15.1354 7.96702 15.1204 7.92575 15.1193 7.92687C15.1181 7.92799 15.1313 7.97111 15.1485 8.02268C15.1657 8.07425 15.1807 8.11553 15.1819 8.1144C15.183 8.11328 15.1698 8.07016 15.1526 8.01859ZM14.7785 7.78266C14.7782 7.77965 14.7649 7.81566 14.7489 7.86267C14.7328 7.90969 14.7199 7.95061 14.7201 7.95363C14.7204 7.95664 14.7336 7.92064 14.7497 7.87363C14.7658 7.82661 14.7787 7.78567 14.7785 7.78266ZM15.0799 7.79653C15.0642 7.74936 15.0504 7.71171 15.0493 7.71284C15.0481 7.71398 15.0601 7.75347 15.0758 7.80064C15.0915 7.8478 15.1053 7.88546 15.1064 7.88434C15.1076 7.88322 15.0956 7.84369 15.0799 7.79653ZM14.8539 7.55257C14.8536 7.54957 14.8391 7.58919 14.8216 7.64063C14.804 7.69206 14.7899 7.7366 14.7901 7.73961C14.7904 7.74261 14.8049 7.70299 14.8224 7.65155C14.84 7.60012 14.8541 7.55558 14.8539 7.55257ZM15.0072 7.57448C14.99 7.52291 14.975 7.48164 14.9738 7.48277C14.9727 7.48388 14.9859 7.52701 15.0031 7.57858C15.0203 7.63015 15.0353 7.67142 15.0364 7.67029C15.0376 7.66918 15.0244 7.62605 15.0072 7.57448ZM14.9223 7.35181C14.9243 7.347 14.9327 7.36417 14.9434 7.39461C14.9532 7.42256 14.9614 7.44304 14.9616 7.44011C14.9624 7.43096 14.9291 7.33575 14.9251 7.33575C14.9213 7.33575 14.8648 7.5007 14.8655 7.50983C14.8658 7.51268 14.8779 7.48009 14.8924 7.43741C14.907 7.39474 14.9204 7.35622 14.9223 7.35181ZM7.2306 7.33688C7.22888 7.33415 7.32922 7.02037 7.45352 6.63958C7.57783 6.2588 7.67951 5.94365 7.67947 5.93924C7.67947 5.93478 7.41555 5.74084 7.08571 5.50287C6.75917 5.26729 6.49121 5.07046 6.49024 5.06546C6.48859 5.05695 6.53522 5.05637 7.22928 5.05637H7.97008L7.99755 4.9721C8.22022 4.28893 8.42548 3.66642 8.42988 3.66096C8.43316 3.65688 8.43743 3.65602 8.44028 3.65885C8.44294 3.6615 8.54753 3.9764 8.67271 4.35866L8.90031 5.05371L9.64018 5.05637C10.1794 5.05832 10.3806 5.06067 10.382 5.06504C10.3831 5.06834 10.1193 5.26215 9.79572 5.49573C9.47213 5.72931 9.203 5.92405 9.19764 5.92849C9.1884 5.93615 9.1993 5.97143 9.4141 6.62906C9.53852 7.00995 9.6403 7.32597 9.6403 7.33134C9.6403 7.33671 9.63817 7.3411 9.63555 7.3411C9.63294 7.3411 9.36219 7.14701 9.03388 6.90977C8.50228 6.52564 8.43581 6.47913 8.42655 6.48488C8.42083 6.48843 8.15288 6.68161 7.8311 6.91417C7.50933 7.14672 7.24327 7.33808 7.23987 7.33941C7.23646 7.34075 7.23229 7.3397 7.2306 7.33688ZM7.84229 6.89331C8.16909 6.65713 8.43041 6.4718 8.43645 6.47195C8.44237 6.47223 8.71099 6.66305 9.03337 6.89629C9.35574 7.12952 9.62141 7.3196 9.62372 7.31869C9.62602 7.31777 9.6212 7.29776 9.61299 7.27422C9.60478 7.25068 9.59787 7.23404 9.59764 7.23726C9.59736 7.24048 9.60207 7.25713 9.608 7.27426C9.61393 7.29139 9.61773 7.30646 9.61645 7.30774C9.61516 7.30902 9.35169 7.12045 9.03096 6.88872C8.71022 6.65699 8.44368 6.46632 8.43862 6.46501C8.4327 6.46348 8.222 6.61262 7.84383 6.88605C7.52175 7.11894 7.25703 7.30831 7.25557 7.30686C7.25412 7.30542 7.25684 7.29284 7.26161 7.27891C7.26639 7.26499 7.27012 7.251 7.2699 7.24785C7.26954 7.24268 7.25685 7.27519 7.24622 7.30847C7.24292 7.31882 7.24376 7.32069 7.25051 7.31812C7.25513 7.31636 7.52142 7.1252 7.84229 6.89331ZM9.56427 7.12235C9.54855 7.07518 9.53475 7.03752 9.53362 7.03865C9.53247 7.03979 9.54441 7.07929 9.56014 7.12646C9.57586 7.17362 9.58965 7.21128 9.59079 7.21016C9.59191 7.20904 9.57999 7.16951 9.56427 7.12235ZM7.33452 7.04963C7.33424 7.04661 7.32217 7.07899 7.30759 7.12159C7.293 7.16418 7.28126 7.2015 7.28148 7.20452C7.28176 7.20754 7.29383 7.17516 7.30841 7.13257C7.323 7.08997 7.33475 7.05265 7.33452 7.04963ZM9.49963 6.92437C9.48391 6.87721 9.47012 6.83954 9.46898 6.84067C9.46783 6.84182 9.47977 6.88132 9.4955 6.92848C9.51122 6.97565 9.52502 7.01331 9.52615 7.01218C9.5273 7.01104 9.51535 6.97153 9.49963 6.92437ZM7.39915 6.85166C7.39887 6.84863 7.38681 6.88102 7.37222 6.92361C7.35764 6.9662 7.34589 7.00353 7.34612 7.00655C7.3464 7.00957 7.35847 6.97719 7.37305 6.93459C7.38764 6.892 7.39938 6.85467 7.39915 6.85166ZM9.43769 6.73443C9.42346 6.69167 9.41088 6.65761 9.40974 6.65874C9.40859 6.65988 9.41932 6.69578 9.43355 6.73854C9.44778 6.78129 9.46036 6.81535 9.4615 6.81422C9.46265 6.81308 9.45193 6.77718 9.43769 6.73443ZM7.46379 6.65368C7.46351 6.65066 7.45144 6.68304 7.43686 6.72564C7.42227 6.76823 7.41053 6.80555 7.41076 6.80857C7.41104 6.81159 7.4231 6.77921 7.43769 6.73662C7.45227 6.69402 7.46402 6.6567 7.46379 6.65368ZM9.37306 6.53645C9.35882 6.49369 9.34625 6.45964 9.34511 6.46077C9.34396 6.46191 9.35468 6.4978 9.36891 6.54056C9.38315 6.58332 9.39573 6.61738 9.39686 6.61625C9.39801 6.6151 9.38729 6.57921 9.37306 6.53645ZM7.52843 6.45571C7.52815 6.45269 7.51608 6.48507 7.5015 6.52766C7.48691 6.57026 7.47517 6.60758 7.47539 6.6106C7.47567 6.61362 7.48774 6.58124 7.50232 6.53864C7.51691 6.49605 7.52866 6.45872 7.52843 6.45571ZM9.30842 6.33848C9.29419 6.29572 9.28161 6.26166 9.28047 6.26279C9.27932 6.26394 9.29004 6.29983 9.30428 6.34259C9.31851 6.38534 9.33109 6.4194 9.33223 6.41827C9.33338 6.41713 9.32265 6.38123 9.30842 6.33848ZM7.59307 6.25773C7.59279 6.25471 7.58072 6.28709 7.56613 6.32969C7.55155 6.37228 7.5398 6.4096 7.54003 6.41262C7.54031 6.41565 7.55238 6.38326 7.56696 6.34067C7.58155 6.29807 7.59329 6.26075 7.59307 6.25773ZM9.24378 6.1405C9.22955 6.09775 9.21697 6.06369 9.21584 6.06482C9.21468 6.06596 9.22541 6.10186 9.23964 6.14461C9.25387 6.18737 9.26645 6.22143 9.26759 6.2203C9.26874 6.21915 9.25802 6.18326 9.24378 6.1405ZM7.6577 6.05976C7.65742 6.05674 7.64536 6.08912 7.63077 6.13171C7.61619 6.17431 7.60444 6.21163 7.60467 6.21465C7.60495 6.21767 7.61701 6.18529 7.6316 6.14269C7.64618 6.1001 7.65793 6.06277 7.6577 6.05976ZM7.69582 5.9362C7.69582 5.92705 7.57414 5.83686 7.10726 5.49989L6.51869 5.0751L7.24666 5.07374C7.82017 5.07268 7.97575 5.07095 7.97993 5.06571C7.98658 5.05735 8.03705 4.90663 8.03416 4.90376C8.03298 4.90259 8.02031 4.93707 8.00598 4.98035C7.99164 5.02363 7.97881 5.06025 7.97747 5.06172C7.97612 5.0632 7.64377 5.0656 7.23892 5.06707L6.50283 5.06973L7.09203 5.49512C7.41609 5.72907 7.68384 5.92461 7.68702 5.92964C7.69141 5.93659 7.68929 5.94952 7.67815 5.98347C7.67009 6.00805 7.66368 6.03041 7.66391 6.03318C7.66466 6.04253 7.69582 5.94784 7.69582 5.9362ZM9.19086 5.97761C9.18355 5.95627 9.17873 5.93583 9.18014 5.93217C9.18154 5.92852 9.448 5.73418 9.77224 5.50031C10.0965 5.26645 10.3618 5.0733 10.3619 5.07111C10.3619 5.06891 10.0318 5.06651 9.62818 5.06576L8.89429 5.06439L8.86639 4.98413C8.85104 4.93999 8.83832 4.90637 8.83811 4.90944C8.83747 4.9188 8.88542 5.057 8.89206 5.06494C8.89729 5.07122 9.01237 5.07259 9.6253 5.07374L10.3523 5.0751L9.77443 5.49227C9.45658 5.72172 9.19063 5.91447 9.18343 5.92062L9.17034 5.93181L9.18571 5.97868C9.19416 6.00446 9.20176 6.02349 9.20261 6.02098C9.20345 6.01847 9.19817 5.99895 9.19086 5.97761ZM8.79671 4.77074C8.7795 4.71917 8.76449 4.6779 8.76335 4.67902C8.76223 4.68017 8.77537 4.72326 8.79258 4.77483C8.80979 4.8264 8.8248 4.86768 8.82593 4.86655C8.82705 4.86541 8.81392 4.82231 8.79671 4.77074ZM8.10477 4.68998C8.10449 4.68697 8.09121 4.72297 8.07514 4.76999C8.05908 4.81701 8.04612 4.85793 8.04635 4.86094C8.04663 4.86395 8.05991 4.82796 8.07597 4.78094C8.09204 4.73393 8.105 4.69299 8.10477 4.68998ZM8.18018 4.45989C8.1799 4.45688 8.16541 4.4965 8.14786 4.54794C8.13032 4.59938 8.11615 4.64393 8.11638 4.64694C8.11666 4.64994 8.13114 4.61032 8.14869 4.55888C8.16624 4.50745 8.18041 4.4629 8.18018 4.45989ZM8.72399 4.54868C8.70827 4.50152 8.69448 4.46385 8.69334 4.46498C8.69219 4.46609 8.70414 4.50562 8.71986 4.55279C8.73558 4.59995 8.74938 4.63762 8.75051 4.63649C8.75163 4.63535 8.73971 4.59584 8.72399 4.54868ZM8.65127 4.32663C8.63406 4.27506 8.61905 4.23379 8.61792 4.23492C8.6168 4.23603 8.62994 4.27916 8.64715 4.33073C8.66436 4.3823 8.67937 4.42357 8.6805 4.42244C8.68165 4.4213 8.66848 4.3782 8.65127 4.32663ZM8.2502 4.24587C8.24992 4.24286 8.23664 4.27887 8.22058 4.32588C8.20451 4.3729 8.19155 4.41382 8.19178 4.41684C8.19206 4.41985 8.20534 4.38385 8.22141 4.33684C8.23747 4.28982 8.25043 4.24889 8.2502 4.24587ZM8.32561 4.01578C8.32533 4.01278 8.31084 4.0524 8.29329 4.10384C8.27575 4.15527 8.26158 4.19983 8.26181 4.20283C8.26209 4.20584 8.27658 4.16621 8.29413 4.11478C8.31167 4.06334 8.32584 4.01879 8.32561 4.01578ZM8.57856 4.10457C8.56284 4.05741 8.54904 4.01974 8.54791 4.02087C8.54676 4.02202 8.5587 4.06152 8.57443 4.10868C8.59015 4.15585 8.60394 4.19351 8.60508 4.19238C8.60623 4.19127 8.59428 4.15173 8.57856 4.10457ZM8.50584 3.88253C8.48863 3.83096 8.47362 3.78969 8.47249 3.79081C8.47136 3.79196 8.4845 3.83505 8.50171 3.88662C8.51893 3.93819 8.53393 3.97947 8.53507 3.97834C8.53622 3.97722 8.52305 3.9341 8.50584 3.88253ZM8.39563 3.80177C8.39535 3.79875 8.38208 3.83476 8.36601 3.88178C8.34994 3.92879 8.33699 3.96973 8.33721 3.97274C8.33749 3.97576 8.35078 3.93975 8.36684 3.89273C8.38291 3.84572 8.39586 3.80478 8.39563 3.80177ZM8.43468 3.69454C8.43667 3.69259 8.44255 3.70443 8.44776 3.72084C8.45297 3.73725 8.45825 3.74966 8.45951 3.74841C8.46077 3.74716 8.45643 3.73012 8.44987 3.71054C8.44331 3.69097 8.43611 3.67697 8.43386 3.67944C8.42881 3.68499 8.40667 3.75079 8.40724 3.75854C8.40752 3.76164 8.41293 3.7493 8.41936 3.73112C8.4258 3.71293 8.43269 3.69647 8.43468 3.69454ZM0.742001 3.673C0.742001 3.66778 0.842592 3.35538 0.965536 2.97878C1.08848 2.60218 1.18907 2.28979 1.18907 2.28458C1.18907 2.27817 0.998348 2.13721 0.599814 1.84906C0.275722 1.61473 0.00753915 1.41941 0.00385004 1.415C0.000160924 1.41058 -0.00109802 1.40521 0.00104531 1.40308C0.00320548 1.40093 0.337371 1.39799 0.743658 1.39652L1.48237 1.39385L1.66563 0.834598C1.76642 0.527013 1.86914 0.213389 1.8939 0.137666C1.92354 0.0469671 1.9414 0 1.94623 0C1.95103 0 1.96664 0.0401712 1.99143 0.116371C2.01226 0.180378 2.11488 0.494002 2.21947 0.813303L2.40964 1.39385L3.14999 1.39657C3.55718 1.39808 3.89112 1.39988 3.89208 1.40059C3.90142 1.40751 3.81311 1.47374 3.29783 1.84624C2.97196 2.08182 2.70451 2.27687 2.70352 2.27968C2.70254 2.28249 2.80373 2.59737 2.92841 2.97943C3.05308 3.36148 3.15509 3.67569 3.15509 3.67767C3.15509 3.67965 3.15085 3.68117 3.14567 3.68106C3.14048 3.68106 2.86961 3.48822 2.54374 3.25277C2.21782 3.01731 1.9476 2.82564 1.94316 2.82678C1.93871 2.82792 1.67108 3.01977 1.34842 3.25312C1.02575 3.48646 0.757311 3.67853 0.751874 3.67994C0.745031 3.68172 0.742001 3.67957 0.742001 3.673ZM1.35232 3.23767C1.67422 3.00489 1.94139 2.81445 1.94602 2.81445C1.95065 2.81445 2.21992 3.0061 2.54438 3.24034C2.86884 3.47458 3.13557 3.66499 3.13712 3.66345C3.13866 3.66191 3.13066 3.63267 3.11933 3.59846C3.10799 3.56425 3.09805 3.53825 3.09724 3.54068C3.09642 3.54311 3.1041 3.56972 3.1143 3.59981C3.1245 3.62989 3.13118 3.65443 3.12916 3.65433C3.12714 3.65433 2.86248 3.46408 2.54105 3.23177C2.21962 2.99945 1.95218 2.80932 1.94673 2.80924C1.94129 2.80924 1.67348 2.99941 1.35161 3.23202C1.02974 3.46464 0.765732 3.65299 0.764927 3.65059C0.764113 3.64819 0.773174 3.6175 0.785049 3.58239C0.796922 3.54728 0.806449 3.51604 0.806222 3.51296C0.805941 3.50988 0.795063 3.53866 0.781928 3.57692C0.748644 3.67384 0.750355 3.66727 0.759285 3.66387C0.763552 3.66225 1.03042 3.47045 1.35232 3.23767ZM3.0629 3.42505C3.04718 3.37788 3.03339 3.34022 3.03225 3.34135C3.0311 3.34249 3.04305 3.38199 3.05877 3.42915C3.07449 3.47632 3.08829 3.51398 3.08942 3.51285C3.09055 3.51171 3.07863 3.47221 3.0629 3.42505ZM0.865472 3.33092C0.865191 3.3279 0.853126 3.36029 0.838541 3.40288C0.823956 3.44547 0.812208 3.48279 0.812436 3.48582C0.812716 3.48884 0.824783 3.45645 0.839368 3.41386C0.853953 3.37126 0.865699 3.33394 0.865472 3.33092ZM2.99827 3.22707C2.98255 3.17991 2.96875 3.14224 2.96762 3.14337C2.96649 3.14449 2.97841 3.18402 2.99414 3.23118C3.00986 3.27834 3.02365 3.31601 3.02479 3.31488C3.02594 3.31374 3.01399 3.27423 2.99827 3.22707ZM0.930109 3.13295C0.929829 3.12993 0.917762 3.16231 0.903177 3.2049C0.888591 3.2475 0.876845 3.28482 0.877073 3.28784C0.877353 3.29086 0.88942 3.25848 0.904005 3.21589C0.918591 3.17329 0.930336 3.13597 0.930109 3.13295ZM2.93363 3.0291C2.91791 2.98193 2.90411 2.94427 2.90298 2.9454C2.90183 2.94654 2.91378 2.98604 2.9295 3.03321C2.94522 3.08037 2.95901 3.11803 2.96015 3.1169C2.9613 3.11576 2.94935 3.07626 2.93363 3.0291ZM0.994746 2.93497C0.994466 2.93195 0.982399 2.96434 0.967814 3.00693C0.953228 3.04952 0.941483 3.08685 0.94171 3.08987C0.94199 3.09289 0.954055 3.0605 0.968641 3.01791C0.983226 2.97531 0.994973 2.93799 0.994746 2.93497ZM2.86899 2.83112C2.85327 2.78396 2.83948 2.74629 2.83834 2.74742C2.83719 2.74856 2.84914 2.78807 2.86486 2.83523C2.88058 2.88239 2.89438 2.92006 2.89551 2.91893C2.89666 2.91779 2.88472 2.87828 2.86899 2.83112ZM1.05938 2.737C1.0591 2.73398 1.04704 2.76636 1.03245 2.80895C1.01787 2.85155 1.00612 2.88887 1.00635 2.89189C1.00663 2.89491 1.01869 2.86253 1.03328 2.81994C1.04786 2.77734 1.05961 2.74002 1.05938 2.737ZM2.80706 2.64116C2.79282 2.5984 2.78025 2.56436 2.77911 2.56549C2.77796 2.56663 2.78868 2.60253 2.80291 2.64528C2.81714 2.68804 2.82972 2.7221 2.83086 2.72097C2.83201 2.71983 2.82129 2.68392 2.80706 2.64116ZM1.12402 2.53902C1.12374 2.536 1.11167 2.56839 1.09709 2.61098C1.0825 2.65357 1.07075 2.6909 1.07098 2.69392C1.07126 2.69694 1.08333 2.66456 1.09791 2.62196C1.1125 2.57937 1.12425 2.54204 1.12402 2.53902ZM2.74242 2.44319C2.72819 2.40043 2.71561 2.36638 2.71447 2.36752C2.71332 2.36866 2.72404 2.40455 2.73828 2.44731C2.75251 2.49007 2.76509 2.52413 2.76623 2.52299C2.76738 2.52185 2.75665 2.48594 2.74242 2.44319ZM1.18866 2.34105C1.18838 2.33803 1.17631 2.37041 1.16172 2.41301C1.14714 2.4556 1.13539 2.49292 1.13562 2.49594C1.1359 2.49896 1.14797 2.46658 1.16255 2.42399C1.17714 2.38139 1.18888 2.34407 1.18866 2.34105ZM2.69618 2.29832C2.6902 2.27615 2.69044 2.27227 2.69809 2.26685C2.94556 2.09095 3.87489 1.41468 3.87098 1.41335C3.86793 1.41232 3.86256 1.415 3.85904 1.41935C3.85552 1.42369 3.59026 1.6167 3.26957 1.84827C2.92214 2.09915 2.6865 2.27272 2.6865 2.27773C2.6865 2.28881 2.69842 2.32818 2.701 2.32562C2.70209 2.32453 2.69992 2.31224 2.69618 2.29832ZM1.20352 2.28908C1.20181 2.28482 1.20052 2.28608 1.20027 2.29231C1.19999 2.29795 1.2013 2.30111 1.2031 2.29933C1.20489 2.29755 1.20509 2.29295 1.20352 2.28908ZM1.20105 2.26747C1.19792 2.26372 0.933669 2.07164 0.613841 1.84062C0.294014 1.60961 0.033388 1.4188 0.0346729 1.41659C0.0359634 1.41439 0.0327097 1.41257 0.0274607 1.41257C0.019109 1.41257 0.018898 1.41352 0.025805 1.42007C0.0301421 1.4242 0.294258 1.61573 0.612728 1.84571C0.931198 2.0757 1.1941 2.26724 1.19696 2.27137C1.19982 2.27549 1.20319 2.27783 1.20446 2.27658C1.20572 2.27532 1.20417 2.27122 1.20105 2.26747ZM1.49362 1.40687C1.49932 1.3977 1.4942 1.39678 1.48293 1.40499C1.47419 1.41134 1.47392 1.41259 1.48127 1.41259C1.48611 1.41259 1.49166 1.41002 1.49362 1.40687ZM2.41011 1.40589C2.4051 1.40221 2.38786 1.36068 2.37179 1.31359C2.35572 1.26651 2.34239 1.23049 2.34216 1.23354C2.34186 1.23786 2.38562 1.37263 2.39814 1.40589C2.39952 1.40957 2.40484 1.41259 2.40994 1.41259C2.41863 1.41259 2.41853 1.41216 2.41011 1.40589ZM1.57108 1.16925C1.5708 1.16624 1.55631 1.20586 1.53876 1.2573C1.52121 1.30874 1.50705 1.35327 1.50727 1.35628C1.50755 1.35929 1.52205 1.31966 1.53959 1.26823C1.55714 1.21679 1.57131 1.17225 1.57108 1.16925ZM2.30342 1.10287C2.2877 1.0557 2.2739 1.01804 2.27276 1.01917C2.27161 1.02031 2.28356 1.0598 2.29928 1.10696C2.31501 1.15413 2.3288 1.19179 2.32994 1.19066C2.33109 1.18955 2.31914 1.15003 2.30342 1.10287ZM1.6411 0.955228C1.64082 0.952216 1.62755 0.98821 1.61148 1.03523C1.59541 1.08224 1.58246 1.12318 1.58268 1.12619C1.58296 1.1292 1.59624 1.0932 1.61231 1.04618C1.62838 0.999164 1.64133 0.958241 1.6411 0.955228ZM2.2307 0.880809C2.21349 0.829239 2.19848 0.787966 2.19734 0.789095C2.19622 0.790238 2.20936 0.833349 2.22657 0.884919C2.24378 0.936488 2.25879 0.977758 2.25993 0.976633C2.26105 0.975518 2.24791 0.932382 2.2307 0.880809ZM1.71651 0.72514C1.71623 0.722133 1.70174 0.761758 1.68419 0.813194C1.66665 0.86463 1.65248 0.909167 1.65271 0.912174C1.65299 0.915181 1.66748 0.875556 1.68502 0.82412C1.70257 0.772684 1.71674 0.728147 1.71651 0.72514ZM2.15799 0.658763C2.14226 0.611599 2.12847 0.573935 2.12733 0.575064C2.12618 0.576206 2.13813 0.615698 2.15385 0.662859C2.16957 0.710023 2.18337 0.747687 2.18451 0.746558C2.18566 0.745416 2.17371 0.705927 2.15799 0.658763ZM1.78654 0.511122C1.78626 0.50811 1.77298 0.544104 1.75691 0.59112C1.74084 0.638137 1.72789 0.679074 1.72812 0.682086C1.7284 0.685099 1.74167 0.649104 1.75774 0.602088C1.77381 0.555072 1.78676 0.514135 1.78654 0.511122ZM2.08526 0.436703C2.06806 0.385134 2.05305 0.343874 2.05191 0.345003C2.05079 0.346118 2.06393 0.389243 2.08114 0.440813C2.09835 0.492383 2.11336 0.533653 2.11449 0.532527C2.11562 0.531412 2.10248 0.488276 2.08526 0.436703ZM1.86194 0.281034C1.86166 0.278027 1.84717 0.317652 1.82963 0.369088C1.81208 0.420524 1.79791 0.465061 1.79814 0.468068C1.79842 0.471075 1.81291 0.431451 1.83046 0.380015C1.84801 0.328579 1.86217 0.284041 1.86194 0.281034ZM2.01255 0.214657C1.99683 0.167493 1.98304 0.129829 1.9819 0.130958C1.98075 0.132073 1.9927 0.171592 2.00842 0.218753C2.02414 0.265917 2.03794 0.303581 2.03907 0.302452C2.04022 0.30131 2.02828 0.261821 2.01255 0.214657ZM1.93197 0.0670166C1.93169 0.0640041 1.91841 0.100012 1.90234 0.147028C1.88628 0.194044 1.87332 0.234968 1.87355 0.23798C1.87383 0.240993 1.88711 0.204998 1.90317 0.157982C1.91924 0.110966 1.93219 0.0700291 1.93197 0.0670166ZM1.96184 0.0578724C1.9567 0.0422329 1.9513 0.0273664 1.94985 0.0248472C1.94697 0.0198616 1.93793 0.031461 1.93793 0.0401419C1.93793 0.0430848 1.9401 0.0421164 1.94271 0.0379919C1.94614 0.0326078 1.95018 0.0389918 1.95706 0.0606619C1.96232 0.0772546 1.96765 0.0898137 1.96891 0.0885708C1.97017 0.0873167 1.96697 0.0735119 1.96184 0.0578724ZM13.7178 3.67456C13.7178 3.67089 13.8197 3.35616 13.9441 2.97516C14.1467 2.3544 14.1694 2.28158 14.162 2.27422C14.1575 2.26971 13.8892 2.07459 13.5658 1.84064C13.2424 1.60668 12.9769 1.41256 12.9759 1.40925C12.9749 1.40595 12.9796 1.40177 12.9864 1.39996C12.9932 1.39815 13.3276 1.39664 13.7297 1.3966H14.4606L14.4908 1.3043C14.8317 0.261693 14.9156 0.00727351 14.9196 0.00302085C14.9226 -0.000189546 14.9262 -0.000170039 14.9295 0.00302085C14.9324 0.00584667 15.037 0.320539 15.1621 0.702348L15.3895 1.39654H16.1227C16.7334 1.39654 16.8577 1.39777 16.866 1.40384C16.8781 1.41261 16.9486 1.35993 16.2386 1.8724C15.9438 2.08515 15.6972 2.26445 15.6905 2.27085L15.6783 2.28248L15.9046 2.97596C16.0291 3.35737 16.1309 3.6721 16.1309 3.67535C16.1309 3.67861 16.1273 3.68127 16.1229 3.68127C16.1185 3.68127 15.8484 3.48865 15.5228 3.25322C15.1971 3.0178 14.9281 2.82517 14.925 2.82517C14.9219 2.82517 14.6525 3.0178 14.3264 3.25322C14.0003 3.48865 13.7299 3.68127 13.7256 3.68127C13.7213 3.68127 13.7178 3.67824 13.7178 3.67456ZM14.3272 3.23967C14.7356 2.94463 14.9196 2.81471 14.9271 2.81599C14.9331 2.81702 15.2019 3.00859 15.5244 3.24173C15.8469 3.47486 16.1121 3.66422 16.1138 3.66255C16.1155 3.66088 16.1061 3.62694 16.093 3.58712C16.0799 3.5473 16.0685 3.51673 16.0677 3.51919C16.0669 3.52165 16.0759 3.55233 16.0877 3.58735C16.0996 3.62238 16.1083 3.65201 16.1071 3.65319C16.1059 3.65436 15.8413 3.46472 15.5192 3.23175C15.0921 2.92295 14.9304 2.80876 14.9221 2.81032C14.9159 2.81149 14.6482 3.00207 14.3272 3.23382C14.0062 3.46557 13.7427 3.65424 13.7415 3.65309C13.7404 3.65195 13.7467 3.62966 13.7555 3.60359C13.7644 3.57752 13.7715 3.55363 13.7712 3.55051C13.7707 3.54306 13.7339 3.64932 13.7339 3.65832C13.7339 3.66211 13.736 3.6652 13.736 3.6652C13.736 3.6652 14.0032 3.47372 14.3272 3.23967ZM13.8359 3.35234C13.8356 3.34932 13.8235 3.38169 13.8089 3.42428C13.7944 3.46688 13.7826 3.5042 13.7828 3.50722C13.7831 3.51024 13.7952 3.47786 13.8098 3.43526C13.8244 3.39267 13.8361 3.35536 13.8359 3.35234ZM16.0306 3.39561C16.0164 3.35285 16.0038 3.31881 16.0027 3.31994C16.0015 3.32108 16.0122 3.35698 16.0265 3.39974C16.0407 3.44249 16.0533 3.47655 16.0544 3.47542C16.0556 3.47428 16.0449 3.43837 16.0306 3.39561ZM13.9005 3.15437C13.9002 3.15135 13.8882 3.18371 13.8736 3.22631C13.859 3.2689 13.8473 3.30622 13.8475 3.30925C13.8478 3.31227 13.8598 3.27988 13.8744 3.23729C13.889 3.19469 13.9007 3.15738 13.9005 3.15437ZM15.966 3.19764C15.9517 3.15488 15.9392 3.12084 15.938 3.12197C15.9369 3.12311 15.9476 3.159 15.9618 3.20176C15.9761 3.24452 15.9887 3.27858 15.9898 3.27745C15.9909 3.2763 15.9802 3.24039 15.966 3.19764ZM13.9652 2.95639C13.9649 2.95337 13.9528 2.98574 13.9382 3.02833C13.9236 3.07093 13.9119 3.10825 13.9121 3.11127C13.9124 3.11429 13.9245 3.08191 13.939 3.03932C13.9536 2.99672 13.9654 2.95941 13.9652 2.95639ZM15.9013 2.99966C15.8871 2.95691 15.8745 2.92286 15.8734 2.92399C15.8722 2.92513 15.883 2.96103 15.8972 3.00379C15.9114 3.04654 15.924 3.0806 15.9252 3.07947C15.9263 3.07833 15.9156 3.04242 15.9013 2.99966ZM14.0298 2.75842C14.0295 2.7554 14.0174 2.78777 14.0029 2.83036C13.9883 2.87295 13.9765 2.91028 13.9768 2.9133C13.977 2.91632 13.9891 2.88393 14.0037 2.84134C14.0183 2.79874 14.03 2.76144 14.0298 2.75842ZM15.8367 2.80169C15.8225 2.75893 15.8099 2.72489 15.8088 2.72602C15.8076 2.72716 15.8183 2.76305 15.8326 2.80581C15.8468 2.84857 15.8594 2.88263 15.8605 2.8815C15.8617 2.88035 15.8509 2.84444 15.8367 2.80169ZM14.0944 2.56044C14.0941 2.55742 14.0821 2.58979 14.0675 2.63238C14.0529 2.67498 14.0412 2.7123 14.0414 2.71532C14.0417 2.71834 14.0537 2.68596 14.0683 2.64337C14.0829 2.60077 14.0947 2.56346 14.0944 2.56044ZM15.7721 2.60371C15.7578 2.56096 15.7453 2.52691 15.7441 2.52804C15.743 2.52919 15.7537 2.56508 15.7679 2.60784C15.7822 2.65059 15.7947 2.68465 15.7959 2.68352C15.797 2.68238 15.7863 2.64647 15.7721 2.60371ZM14.1591 2.36247C14.1588 2.35945 14.1467 2.39182 14.1321 2.43441C14.1175 2.477 14.1058 2.51433 14.106 2.51735C14.1063 2.52037 14.1184 2.48799 14.133 2.44539C14.1475 2.4028 14.1593 2.36549 14.1591 2.36247ZM15.7101 2.41378C15.6944 2.36662 15.6806 2.32895 15.6795 2.33008C15.6784 2.33122 15.6903 2.37071 15.706 2.41788C15.7217 2.46504 15.7355 2.50271 15.7366 2.50158C15.7378 2.50043 15.7258 2.46094 15.7101 2.41378ZM14.1837 2.27441C14.1821 2.26979 13.918 2.07612 13.5967 1.84404C13.2755 1.61196 13.0118 1.41959 13.0108 1.41653C13.0098 1.41348 13.0058 1.41202 13.0019 1.4133C12.9981 1.41458 13.2418 1.59402 13.5435 1.81206C14.2492 2.32198 14.1827 2.27231 14.1789 2.28642C14.171 2.31572 14.1707 2.32309 14.1783 2.30383C14.1828 2.29227 14.1852 2.27903 14.1837 2.27441ZM15.6706 2.29119C15.6681 2.27976 15.6702 2.27367 15.6796 2.26528C15.6864 2.25925 15.9533 2.0656 16.2728 1.83495C16.5923 1.6043 16.8509 1.41466 16.8474 1.41353C16.844 1.41238 16.8383 1.4152 16.8348 1.41977C16.8313 1.42434 16.5679 1.61621 16.2494 1.84616C15.9309 2.07611 15.6685 2.26756 15.6662 2.27161C15.6639 2.27566 15.6635 2.2851 15.6654 2.29257C15.6701 2.31108 15.6747 2.30985 15.6706 2.29119ZM14.4705 1.40589C14.4772 1.39753 14.5276 1.2468 14.5247 1.24392C14.5236 1.24275 14.511 1.27723 14.4967 1.32051C14.4824 1.36379 14.4669 1.40221 14.4622 1.40589C14.4575 1.40957 14.4563 1.41257 14.4594 1.41257C14.4626 1.41257 14.4676 1.40957 14.4705 1.40589ZM15.3919 1.40894C15.3868 1.40763 15.3811 1.4017 15.3792 1.39578C15.3774 1.38987 15.3746 1.3862 15.3732 1.38765C15.3678 1.39295 15.3829 1.41256 15.3918 1.41196C15.4004 1.41138 15.4005 1.41118 15.3919 1.40894ZM15.3331 1.25803C15.3174 1.21087 15.3036 1.17321 15.3024 1.17434C15.3013 1.17548 15.3132 1.21498 15.3289 1.26214C15.3447 1.30931 15.3585 1.34697 15.3596 1.34584C15.3607 1.3447 15.3488 1.3052 15.3331 1.25803ZM14.5954 1.03014C14.5951 1.02712 14.5818 1.06312 14.5657 1.11014C14.5497 1.15715 14.5367 1.19809 14.5369 1.2011C14.5372 1.20411 14.5505 1.16811 14.5666 1.12109C14.5826 1.07407 14.5956 1.03315 14.5954 1.03014ZM15.2604 1.03599C15.2432 0.984418 15.2281 0.943148 15.227 0.944274C15.2259 0.945417 15.239 0.988511 15.2562 1.04008C15.2734 1.09165 15.2885 1.13293 15.2896 1.1318C15.2907 1.13068 15.2776 1.08756 15.2604 1.03599ZM14.6708 0.800063C14.6705 0.79705 14.6572 0.833044 14.6411 0.880061C14.6251 0.927077 14.6121 0.968014 14.6123 0.971026C14.6126 0.974039 14.6259 0.938031 14.642 0.891015C14.658 0.843999 14.671 0.803075 14.6708 0.800063ZM15.1876 0.813929C15.1719 0.766765 15.1581 0.729101 15.157 0.730229C15.1559 0.731372 15.1678 0.770874 15.1835 0.818038C15.1992 0.865202 15.213 0.902866 15.2142 0.901737C15.2153 0.900595 15.2034 0.86109 15.1876 0.813929ZM14.7462 0.569961C14.7459 0.566954 14.7314 0.606576 14.7139 0.658015C14.6963 0.709451 14.6821 0.754002 14.6824 0.757009C14.6826 0.760013 14.6971 0.720391 14.7147 0.668955C14.7322 0.617519 14.7464 0.572968 14.7462 0.569961ZM15.1149 0.591882C15.0977 0.540313 15.0827 0.499042 15.0816 0.500168C15.0804 0.501283 15.0936 0.544406 15.1108 0.595978C15.128 0.647548 15.143 0.688821 15.1442 0.687692C15.1453 0.686578 15.1321 0.643452 15.1149 0.591882ZM14.8162 0.355957C14.8159 0.352944 14.8026 0.388939 14.7866 0.435955C14.7705 0.482971 14.7576 0.523908 14.7578 0.526921C14.7581 0.529933 14.7713 0.493925 14.7874 0.446909C14.8035 0.399893 14.8164 0.358969 14.8162 0.355957ZM15.0422 0.369823C15.0265 0.322659 15.0127 0.284995 15.0116 0.286123C15.0104 0.287238 15.0224 0.326768 15.0381 0.373932C15.0538 0.421096 15.0676 0.45876 15.0687 0.457632C15.0699 0.456489 15.0579 0.416984 15.0422 0.369823ZM14.8916 0.125855C14.8913 0.122848 14.8768 0.162484 14.8593 0.213922C14.8417 0.265358 14.8276 0.309896 14.8278 0.312903C14.8281 0.315907 14.8426 0.276285 14.8601 0.224849C14.8777 0.173413 14.8918 0.128862 14.8916 0.125855ZM14.9695 0.147777C14.9523 0.0962069 14.9373 0.0549368 14.9361 0.0560626C14.935 0.0571773 14.9482 0.1003 14.9654 0.151873C14.9826 0.203442 14.9976 0.244715 14.9987 0.243587C14.9999 0.242444 14.9867 0.199346 14.9695 0.147777ZM14.9227 0.0376109C14.9239 0.0362175 14.9272 0.0386527 14.9299 0.0429723C14.936 0.0525644 14.936 0.044136 14.9299 0.0294329C14.9259 0.0198156 14.9246 0.0206608 14.9172 0.0377606C14.9127 0.0482223 14.9076 0.0638743 14.9059 0.0725412C14.9041 0.0813252 14.9067 0.0776375 14.9116 0.0642135C14.9165 0.0509706 14.9214 0.038996 14.9227 0.0376109Z" fill="white"/>
<path d="M6.06727 15.8665H4.03242V21.2092H2.3484V15.8665H0.253405V14.393H6.06727V15.8665ZM6.91139 21.2092V15.9667H8.5954V16.8789C8.92953 16.2106 9.404 15.8765 10.0188 15.8765C10.3997 15.8765 10.7472 15.9768 11.0613 16.1772L10.5501 17.6307C10.2694 17.497 9.98204 17.4302 9.68801 17.4302C9.41402 17.4302 9.18013 17.5104 8.98634 17.6708C8.79922 17.8245 8.66891 18.0283 8.5954 18.2822V21.2092H6.91139ZM12.1371 17.5906L11.8565 16.2374C12.518 15.9968 13.2097 15.8765 13.9314 15.8765C15.4617 15.8765 16.2269 16.5916 16.2269 18.0216V21.2092H14.583V20.7181C14.162 21.1123 13.6641 21.3095 13.0894 21.3095C12.5615 21.3095 12.1505 21.1725 11.8565 20.8985C11.5691 20.6178 11.4254 20.2369 11.4254 19.7558C11.4254 19.1744 11.6393 18.7266 12.067 18.4126C12.5013 18.0918 13.0827 17.9314 13.8111 17.9314C14.0985 17.9314 14.3558 17.9515 14.583 17.9916C14.5763 17.7309 14.5061 17.5438 14.3725 17.4302C14.2455 17.3166 14.045 17.2598 13.771 17.2598C13.2164 17.2598 12.6717 17.3701 12.1371 17.5906ZM13.0694 19.5753C13.0694 19.9362 13.2899 20.1166 13.7309 20.1166C14.0183 20.1166 14.3023 20.0164 14.583 19.8159V18.9939C14.4359 18.9605 14.2856 18.9438 14.1319 18.9438C13.8178 18.9438 13.5605 18.9973 13.36 19.1042C13.1662 19.2111 13.0694 19.3682 13.0694 19.5753ZM22.5719 16.6383C23.0196 17.1395 23.2435 17.7877 23.2435 18.583C23.2435 19.3782 23.0162 20.0331 22.5618 20.5477C22.1141 21.0555 21.5327 21.3095 20.8177 21.3095C20.1962 21.3095 19.6983 21.099 19.3241 20.678V21.2092H17.6401V14.0923H19.3241V16.4779C19.7251 16.077 20.2229 15.8765 20.8177 15.8765C21.5394 15.8765 22.1241 16.1305 22.5719 16.6383ZM21.5294 18.583C21.5294 18.2021 21.4191 17.9013 21.1986 17.6808C20.9847 17.4536 20.6974 17.34 20.3365 17.34C19.9422 17.34 19.6048 17.4703 19.3241 17.7309V19.4651C19.5914 19.719 19.9289 19.846 20.3365 19.846C20.6974 19.846 20.9847 19.7324 21.1986 19.5052C21.4191 19.278 21.5294 18.9706 21.5294 18.583ZM24.7551 17.5906L24.4744 16.2374C25.136 15.9968 25.8277 15.8765 26.5494 15.8765C28.0797 15.8765 28.8449 16.5916 28.8449 18.0216V21.2092H27.2009V20.7181C26.7799 21.1123 26.2821 21.3095 25.7074 21.3095C25.1794 21.3095 24.7685 21.1725 24.4744 20.8985C24.1871 20.6178 24.0434 20.2369 24.0434 19.7558C24.0434 19.1744 24.2572 18.7266 24.6849 18.4126C25.1193 18.0918 25.7007 17.9314 26.4291 17.9314C26.7164 17.9314 26.9737 17.9515 27.2009 17.9916C27.1943 17.7309 27.1241 17.5438 26.9904 17.4302C26.8635 17.3166 26.663 17.2598 26.389 17.2598C25.8343 17.2598 25.2897 17.3701 24.7551 17.5906ZM25.6873 19.5753C25.6873 19.9362 25.9079 20.1166 26.3489 20.1166C26.6363 20.1166 26.9203 20.0164 27.2009 19.8159V18.9939C27.0539 18.9605 26.9036 18.9438 26.7499 18.9438C26.4358 18.9438 26.1785 18.9973 25.978 19.1042C25.7842 19.2111 25.6873 19.3682 25.6873 19.5753ZM30.2681 15.9667H31.9521V20.6278C31.9521 21.7772 31.4576 22.6293 30.4686 23.1839L29.4562 22.1615C29.9974 21.794 30.2681 21.3162 30.2681 20.7281V15.9667ZM30.1779 14.5233C30.1779 14.0087 30.492 13.7514 31.1201 13.7514C31.7349 13.7514 32.0423 14.0087 32.0423 14.5233C32.0423 15.0512 31.7349 15.3152 31.1201 15.3152C30.492 15.3152 30.1779 15.0512 30.1779 14.5233ZM33.0991 18.603C33.0991 17.8078 33.3664 17.1462 33.901 16.6183C34.4357 16.0904 35.1073 15.8264 35.9159 15.8264C36.7378 15.8264 37.4161 16.0904 37.9507 16.6183C38.4853 17.1395 38.7526 17.8011 38.7526 18.603C38.7526 19.3916 38.4853 20.0465 37.9507 20.5677C37.4161 21.0889 36.7378 21.3496 35.9159 21.3496C35.1073 21.3496 34.4357 21.0889 33.901 20.5677C33.3664 20.0465 33.0991 19.3916 33.0991 18.603ZM34.723 18.603C34.723 18.9438 34.8333 19.2345 35.0538 19.4751C35.281 19.709 35.5684 19.8259 35.9159 19.8259C36.2767 19.8259 36.5674 19.709 36.7879 19.4751C37.0151 19.2345 37.1287 18.9438 37.1287 18.603C37.1287 18.2488 37.0151 17.9548 36.7879 17.7209C36.5674 17.4803 36.2767 17.3601 35.9159 17.3601C35.5684 17.3601 35.281 17.4803 35.0538 17.7209C34.8333 17.9548 34.723 18.2488 34.723 18.603ZM4.31308 24.9667H6.00712L3.91213 30.1391C3.62478 30.8808 3.31069 31.4088 2.96988 31.7228C2.62907 32.0369 2.15795 32.194 1.55651 32.194C1.09541 32.194 0.694457 32.077 0.353644 31.8431L0.594218 30.5601C0.941713 30.7405 1.25245 30.8307 1.52644 30.8307C1.72692 30.8307 1.88062 30.7839 1.98754 30.6904C2.10114 30.5968 2.20138 30.4498 2.28826 30.2493L2.37847 30.0388L0.0529271 24.9667H1.90735L3.11022 28.3749L4.31308 24.9667ZM8.82439 29.7181L9.21532 28.1844C9.91031 28.6388 10.6287 28.866 11.3705 28.866C11.7113 28.866 11.9786 28.8126 12.1724 28.7056C12.3662 28.592 12.4631 28.4283 12.4631 28.2145C12.4631 28.0608 12.4029 27.9371 12.2826 27.8436C12.1623 27.7433 11.9652 27.6598 11.6912 27.593L10.5786 27.2923C9.42248 26.9849 8.84443 26.3534 8.84443 25.3978C8.84443 24.783 9.07833 24.2818 9.54611 23.8942C10.0139 23.4999 10.6888 23.3028 11.5709 23.3028C12.4998 23.3028 13.3184 23.4832 14.0268 23.8441L13.5557 25.2975C13.275 25.1371 12.9476 25.0068 12.5733 24.9066C12.1991 24.7997 11.8416 24.7462 11.5008 24.7462C10.8726 24.7462 10.5585 24.9266 10.5585 25.2875C10.5585 25.4278 10.6053 25.5381 10.6989 25.6183C10.7991 25.6918 10.9595 25.762 11.18 25.8288L12.3929 26.1796C13.0144 26.3601 13.4688 26.6073 13.7561 26.9214C14.0435 27.2288 14.1872 27.6197 14.1872 28.0942C14.1872 28.7491 13.9232 29.2837 13.3953 29.698C12.8674 30.1056 12.1791 30.3095 11.3304 30.3095C10.8693 30.3095 10.4015 30.2493 9.92702 30.129C9.45255 30.0021 9.08501 29.8651 8.82439 29.7181ZM19.5194 28.5152L20.1409 29.6379C19.5595 30.1123 18.8177 30.3496 17.9156 30.3496C16.9667 30.3496 16.2483 30.099 15.7605 29.5978C15.2793 29.0899 15.0387 28.425 15.0387 27.603C15.0387 26.8011 15.296 26.1395 15.8106 25.6183C16.3251 25.0904 16.9967 24.8264 17.8254 24.8264C18.5872 24.8264 19.1686 25.0336 19.5695 25.4479C19.9772 25.8555 20.181 26.3768 20.181 27.0116C20.181 27.446 20.1442 27.7801 20.0707 28.014H16.7127C16.7662 28.3281 16.9032 28.5753 17.1237 28.7558C17.3442 28.9295 17.6416 29.0164 18.0158 29.0164C18.2765 29.0164 18.5471 28.9663 18.8278 28.866C19.1084 28.7658 19.339 28.6488 19.5194 28.5152ZM18.7175 26.9515C18.7242 26.9314 18.7275 26.8913 18.7275 26.8312C18.7275 26.6106 18.6507 26.4369 18.497 26.3099C18.3433 26.1763 18.1161 26.1095 17.8154 26.1095C17.5146 26.1095 17.2707 26.1896 17.0836 26.35C16.8965 26.5104 16.7829 26.7109 16.7428 26.9515H18.7175ZM21.0592 27.4025C21.0592 26.6942 21.283 26.0961 21.7308 25.6083C22.1852 25.1204 22.7666 24.8765 23.4749 24.8765C24.0897 24.8765 24.5876 25.0837 24.9685 25.498V24.9667H26.6525V29.4875C26.6525 30.3496 26.3886 31.0145 25.8606 31.4823C25.3327 31.9567 24.6778 32.194 23.8959 32.194C23.7623 32.194 23.6286 32.1873 23.495 32.1739C23.368 32.1672 23.2511 32.1539 23.1442 32.1338C23.0439 32.1205 22.937 32.1004 22.8234 32.0737C22.7098 32.0469 22.6196 32.0236 22.5527 32.0035C22.4859 31.9835 22.4024 31.9534 22.3021 31.9133C22.2019 31.8799 22.1317 31.8531 22.0916 31.8331C22.0582 31.8197 21.9981 31.793 21.9112 31.7529C21.8243 31.7195 21.7742 31.6994 21.7609 31.6928L22.1117 30.3796C22.6998 30.7004 23.2644 30.8608 23.8057 30.8608C24.1532 30.8608 24.4339 30.7772 24.6477 30.6102C24.8616 30.4498 24.9685 30.1925 24.9685 29.8383V29.3371C24.5675 29.7181 24.0697 29.9085 23.4749 29.9085C22.7733 29.9085 22.1952 29.6679 21.7408 29.1868C21.2864 28.699 21.0592 28.1042 21.0592 27.4025ZM22.7833 27.4025C22.7833 27.7166 22.8902 27.9706 23.1041 28.1644C23.3179 28.3515 23.6053 28.445 23.9661 28.445C24.347 28.445 24.6812 28.3181 24.9685 28.0641V26.7309C24.6945 26.4703 24.3604 26.34 23.9661 26.34C23.6053 26.34 23.3179 26.4369 23.1041 26.6307C22.8902 26.8245 22.7833 27.0818 22.7833 27.4025ZM33.3969 30.2092H31.7129V29.5978C31.2852 30.0656 30.7339 30.2994 30.0589 30.2994C29.384 30.2994 28.8794 30.0856 28.5453 29.6579C28.2179 29.2302 28.0541 28.6722 28.0541 27.9839V24.9667H29.7382V27.7033C29.7382 28.3982 30.0456 28.7457 30.6604 28.7457C31.1348 28.7457 31.4857 28.5286 31.7129 28.0942V24.9667H33.3969V30.2092ZM34.8589 30.2092V24.9667H36.5429V25.8789C36.877 25.2106 37.3515 24.8765 37.9663 24.8765C38.3472 24.8765 38.6947 24.9768 39.0088 25.1772L38.4976 26.6307C38.2169 26.497 37.9295 26.4302 37.6355 26.4302C37.3615 26.4302 37.1276 26.5104 36.9338 26.6708C36.7467 26.8245 36.6164 27.0283 36.5429 27.2822V30.2092H34.8589ZM39.7219 23.5233C39.7219 23.0087 40.036 22.7514 40.6641 22.7514C41.2856 22.7514 41.5964 23.0087 41.5964 23.5233C41.5964 24.0512 41.2856 24.3152 40.6641 24.3152C40.036 24.3152 39.7219 24.0512 39.7219 23.5233ZM39.8121 30.2092V24.9667H41.4961V30.2092H39.8121ZM43.3448 29.5477C42.8971 29.0331 42.6732 28.3782 42.6732 27.583C42.6732 26.7877 42.8971 26.1395 43.3448 25.6383C43.7926 25.1305 44.3739 24.8765 45.089 24.8765C45.677 24.8765 46.1749 25.0737 46.5825 25.4679V23.0923H48.2666V30.2092H46.5825V29.688C46.2016 30.1023 45.7038 30.3095 45.089 30.3095C44.3739 30.3095 43.7926 30.0555 43.3448 29.5477ZM44.3873 27.583C44.3873 27.9706 44.4942 28.278 44.7081 28.5052C44.9286 28.7324 45.2193 28.846 45.5801 28.846C45.9677 28.846 46.3019 28.719 46.5825 28.4651V26.7309C46.3019 26.4703 45.9677 26.34 45.5801 26.34C45.2193 26.34 44.9286 26.4536 44.7081 26.6808C44.4942 26.9013 44.3873 27.2021 44.3873 27.583ZM50.0889 26.5906L49.8083 25.2374C50.4698 24.9968 51.1615 24.8765 51.8832 24.8765C53.4135 24.8765 54.1787 25.5916 54.1787 27.0216V30.2092H52.5348V29.7181C52.1138 30.1123 51.6159 30.3095 51.0412 30.3095C50.5133 30.3095 50.1023 30.1725 49.8083 29.8985C49.5209 29.6178 49.3772 29.2369 49.3772 28.7558C49.3772 28.1744 49.5911 27.7266 50.0188 27.4126C50.4531 27.0918 51.0345 26.9314 51.7629 26.9314C52.0503 26.9314 52.3076 26.9515 52.5348 26.9916C52.5281 26.7309 52.4579 26.5438 52.3243 26.4302C52.1973 26.3166 51.9968 26.2598 51.7228 26.2598C51.1682 26.2598 50.6235 26.3701 50.0889 26.5906ZM51.0212 28.5753C51.0212 28.9362 51.2417 29.1166 51.6827 29.1166C51.9701 29.1166 52.2541 29.0164 52.5348 28.8159V27.9939C52.3878 27.9605 52.2374 27.9438 52.0837 27.9438C51.7696 27.9438 51.5123 27.9973 51.3119 28.1042C51.1181 28.2111 51.0212 28.3682 51.0212 28.5753ZM55.9628 29.5477C55.5151 29.0331 55.2912 28.3782 55.2912 27.583C55.2912 26.7877 55.5151 26.1395 55.9628 25.6383C56.4105 25.1305 56.9919 24.8765 57.7069 24.8765C58.295 24.8765 58.7929 25.0737 59.2005 25.4679V23.0923H60.8845V30.2092H59.2005V29.688C58.8196 30.1023 58.3217 30.3095 57.7069 30.3095C56.9919 30.3095 56.4105 30.0555 55.9628 29.5477ZM57.0053 27.583C57.0053 27.9706 57.1122 28.278 57.326 28.5052C57.5466 28.7324 57.8373 28.846 58.1981 28.846C58.5857 28.846 58.9198 28.719 59.2005 28.4651V26.7309C58.9198 26.4703 58.5857 26.34 58.1981 26.34C57.8373 26.34 57.5466 26.4536 57.326 26.6808C57.1122 26.9013 57.0053 27.2021 57.0053 27.583ZM64.5236 29.7181L64.9145 28.1844C65.6095 28.6388 66.3279 28.866 67.0697 28.866C67.4105 28.866 67.6778 28.8126 67.8716 28.7056C68.0654 28.592 68.1623 28.4283 68.1623 28.2145C68.1623 28.0608 68.1021 27.9371 67.9818 27.8436C67.8615 27.7433 67.6644 27.6598 67.3904 27.593L66.2778 27.2923C65.1217 26.9849 64.5436 26.3534 64.5436 25.3978C64.5436 24.783 64.7775 24.2818 65.2453 23.8942C65.7131 23.4999 66.388 23.3028 67.2701 23.3028C68.199 23.3028 69.0176 23.4832 69.726 23.8441L69.2549 25.2975C68.9742 25.1371 68.6468 25.0068 68.2725 24.9066C67.8983 24.7997 67.5408 24.7462 67.2 24.7462C66.5718 24.7462 66.2577 24.9266 66.2577 25.2875C66.2577 25.4278 66.3045 25.5381 66.3981 25.6183C66.4983 25.6918 66.6587 25.762 66.8792 25.8288L68.0921 26.1796C68.7136 26.3601 69.168 26.6073 69.4553 26.9214C69.7427 27.2288 69.8864 27.6197 69.8864 28.0942C69.8864 28.7491 69.6224 29.2837 69.0945 29.698C68.5666 30.1056 67.8783 30.3095 67.0296 30.3095C66.5685 30.3095 66.1007 30.2493 65.6262 30.129C65.1518 30.0021 64.7842 29.8651 64.5236 29.7181ZM70.7279 27.603C70.7279 26.8078 70.9952 26.1462 71.5298 25.6183C72.0644 25.0904 72.736 24.8264 73.5446 24.8264C74.3666 24.8264 75.0449 25.0904 75.5795 25.6183C76.1141 26.1395 76.3814 26.8011 76.3814 27.603C76.3814 28.3916 76.1141 29.0465 75.5795 29.5677C75.0449 30.0889 74.3666 30.3496 73.5446 30.3496C72.736 30.3496 72.0644 30.0889 71.5298 29.5677C70.9952 29.0465 70.7279 28.3916 70.7279 27.603ZM72.3518 27.603C72.3518 27.9438 72.462 28.2345 72.6826 28.4751C72.9098 28.709 73.1971 28.8259 73.5446 28.8259C73.9055 28.8259 74.1962 28.709 74.4167 28.4751C74.6439 28.2345 74.7575 27.9438 74.7575 27.603C74.7575 27.2488 74.6439 26.9548 74.4167 26.7209C74.1962 26.4803 73.9055 26.3601 73.5446 26.3601C73.1971 26.3601 72.9098 26.4803 72.6826 26.7209C72.462 26.9548 72.3518 27.2488 72.3518 27.603ZM77.9901 29.5677C77.4688 29.0465 77.2082 28.3849 77.2082 27.583C77.2082 26.7811 77.4688 26.1228 77.9901 25.6083C78.5113 25.087 79.2063 24.8264 80.075 24.8264C80.877 24.8264 81.5586 25.067 82.1199 25.5481L81.3581 26.7911C81.0106 26.5037 80.6163 26.3601 80.1753 26.3601C79.7877 26.3601 79.4836 26.4737 79.2631 26.7009C79.0426 26.9281 78.9323 27.2221 78.9323 27.583C78.9323 27.9505 79.0426 28.2512 79.2631 28.4851C79.4836 28.7123 79.7877 28.8259 80.1753 28.8259C80.6096 28.8259 81.0039 28.6789 81.3581 28.3849L82.1199 29.6278C81.5586 30.109 80.877 30.3496 80.075 30.3496C79.2063 30.3496 78.5113 30.0889 77.9901 29.5677ZM83.087 23.5233C83.087 23.0087 83.4011 22.7514 84.0292 22.7514C84.6507 22.7514 84.9615 23.0087 84.9615 23.5233C84.9615 24.0512 84.6507 24.3152 84.0292 24.3152C83.4011 24.3152 83.087 24.0512 83.087 23.5233ZM83.1772 30.2092V24.9667H84.8612V30.2092H83.1772ZM86.6899 26.5906L86.4092 25.2374C87.0708 24.9968 87.7624 24.8765 88.4842 24.8765C90.0145 24.8765 90.7796 25.5916 90.7796 27.0216V30.2092H89.1357V29.7181C88.7147 30.1123 88.2169 30.3095 87.6422 30.3095C87.1142 30.3095 86.7032 30.1725 86.4092 29.8985C86.1219 29.6178 85.9782 29.2369 85.9782 28.7558C85.9782 28.1744 86.192 27.7266 86.6197 27.4126C87.0541 27.0918 87.6355 26.9314 88.3639 26.9314C88.6512 26.9314 88.9085 26.9515 89.1357 26.9916C89.129 26.7309 89.0589 26.5438 88.9252 26.4302C88.7982 26.3166 88.5978 26.2598 88.3238 26.2598C87.7691 26.2598 87.2245 26.3701 86.6899 26.5906ZM87.6221 28.5753C87.6221 28.9362 87.8426 29.1166 88.2837 29.1166C88.571 29.1166 88.855 29.0164 89.1357 28.8159V27.9939C88.9887 27.9605 88.8383 27.9438 88.6846 27.9438C88.3706 27.9438 88.1133 27.9973 87.9128 28.1042C87.719 28.2111 87.6221 28.3682 87.6221 28.5753ZM92.1828 23.0923H93.8668V28.3849C93.8668 28.7257 93.9871 28.8961 94.2277 28.8961C94.3747 28.8961 94.5485 28.8493 94.7489 28.7558L94.8191 30.0889C94.4115 30.236 93.9871 30.3095 93.5461 30.3095C92.6372 30.3095 92.1828 29.8083 92.1828 28.8059V23.0923Z" fill="white"/>
<path d="M3.22543 36.3509V37.7268C3.0761 37.8426 2.87802 37.9402 2.63118 38.0194C2.38739 38.0986 2.1497 38.1382 1.91809 38.1382C1.4427 38.1382 1.04806 37.995 0.734182 37.7086C0.420301 37.4191 0.26336 37.0305 0.26336 36.5429C0.26336 36.0523 0.420301 35.6622 0.734182 35.3727C1.04806 35.0832 1.4427 34.9385 1.91809 34.9385C2.36911 34.9385 2.76527 35.0817 3.10658 35.3682L2.87802 35.7338C2.60985 35.4992 2.29292 35.3819 1.92724 35.3819C1.58898 35.3819 1.30862 35.4855 1.08616 35.6927C0.863696 35.8999 0.752467 36.1833 0.752467 36.5429C0.752467 36.8964 0.863696 37.1768 1.08616 37.384C1.31166 37.5912 1.59812 37.6948 1.94552 37.6948C2.25331 37.6948 2.52148 37.6217 2.75003 37.4754V36.7669H1.78553V36.3509H3.22543ZM3.78521 36.904C3.78521 36.5384 3.90558 36.2367 4.14632 35.999C4.38707 35.7582 4.69181 35.6379 5.06054 35.6379C5.43232 35.6379 5.73859 35.7582 5.97933 35.999C6.22007 36.2367 6.34045 36.5384 6.34045 36.904C6.34045 37.2636 6.22007 37.5623 5.97933 37.8C5.73859 38.0377 5.43232 38.1565 5.06054 38.1565C4.69181 38.1565 4.38707 38.0377 4.14632 37.8C3.90558 37.5623 3.78521 37.2636 3.78521 36.904ZM4.24689 36.904C4.24689 37.1387 4.32155 37.3337 4.47087 37.4891C4.62324 37.6415 4.8198 37.7177 5.06054 37.7177C5.30129 37.7177 5.49784 37.6415 5.65021 37.4891C5.80563 37.3337 5.88334 37.1387 5.88334 36.904C5.88334 36.6663 5.80563 36.4698 5.65021 36.3144C5.49784 36.1559 5.30129 36.0767 5.06054 36.0767C4.8198 36.0767 4.62324 36.1559 4.47087 36.3144C4.32155 36.4698 4.24689 36.6663 4.24689 36.904ZM9.06914 36.0081C9.28246 36.2367 9.38911 36.5323 9.38911 36.8949C9.38911 37.2575 9.28246 37.5562 9.06914 37.7908C8.85887 38.0224 8.58308 38.1382 8.24177 38.1382C7.92789 38.1382 7.67191 38.0285 7.47383 37.8091V38.0925H6.99843V34.8471H7.47383V35.9761C7.678 35.7658 7.93398 35.6607 8.24177 35.6607C8.58308 35.6607 8.85887 35.7765 9.06914 36.0081ZM8.90458 36.8949C8.90458 36.6511 8.83296 36.4546 8.68974 36.3052C8.54651 36.1529 8.35605 36.0767 8.11835 36.0767C7.99341 36.0767 7.87304 36.1041 7.75723 36.159C7.64448 36.2138 7.55001 36.2809 7.47383 36.3601V37.4526C7.54392 37.5257 7.63686 37.5897 7.75266 37.6446C7.86846 37.6964 7.99036 37.7223 8.11835 37.7223C8.35605 37.7223 8.54651 37.6461 8.68974 37.4937C8.83296 37.3413 8.90458 37.1417 8.90458 36.8949ZM10.0015 35.0208C10.0015 34.8501 10.099 34.7648 10.294 34.7648C10.483 34.7648 10.5775 34.8501 10.5775 35.0208C10.5775 35.1945 10.483 35.2813 10.294 35.2813C10.099 35.2813 10.0015 35.1945 10.0015 35.0208ZM10.0518 38.0925V35.7018H10.5272V38.0925H10.0518ZM13.2936 37.4891L13.481 37.832C13.2159 38.0483 12.8853 38.1565 12.4891 38.1565C12.0594 38.1565 11.7364 38.0407 11.52 37.8091C11.3037 37.5745 11.1955 37.2728 11.1955 36.904C11.1955 36.5445 11.3098 36.2443 11.5383 36.0035C11.7699 35.7597 12.0731 35.6379 12.448 35.6379C12.7954 35.6379 13.059 35.7323 13.2388 35.9213C13.4216 36.1072 13.513 36.3448 13.513 36.6344C13.513 36.8081 13.4963 36.9482 13.4627 37.0549H11.6846C11.709 37.2713 11.7882 37.4419 11.9223 37.5669C12.0594 37.6918 12.2529 37.7543 12.5028 37.7543C12.7954 37.7543 13.059 37.6659 13.2936 37.4891ZM13.0468 36.6846C13.0529 36.6359 13.0559 36.5932 13.0559 36.5566C13.0559 36.4073 13.0041 36.2839 12.9005 36.1864C12.7969 36.0858 12.643 36.0355 12.4388 36.0355C12.2255 36.0355 12.0518 36.098 11.9177 36.223C11.7867 36.3479 11.712 36.5018 11.6937 36.6846H13.0468ZM14.1809 38.0925V35.7018H14.6563V36.1727C14.8178 35.8314 15.0464 35.6607 15.342 35.6607C15.5279 35.6607 15.697 35.7186 15.8494 35.8344L15.662 36.2275C15.5431 36.1422 15.4121 36.0995 15.2689 36.0995C15.1226 36.0995 14.9961 36.1513 14.8895 36.255C14.7828 36.3555 14.7051 36.485 14.6563 36.6435V38.0925H14.1809ZM16.3281 35.7018H16.8035V36.0721C16.9985 35.7978 17.2835 35.6607 17.6583 35.6607C17.9691 35.6607 18.2022 35.7582 18.3577 35.9533C18.5131 36.1483 18.5908 36.4027 18.5908 36.7166V38.0925H18.1154V36.7898C18.1154 36.5765 18.0651 36.4088 17.9646 36.2869C17.864 36.162 17.7116 36.0995 17.5074 36.0995C17.3307 36.0995 17.1814 36.1498 17.0595 36.2504C16.9376 36.3509 16.8523 36.4728 16.8035 36.6161V38.0925H16.3281V35.7018ZM19.226 36.904C19.226 36.5384 19.3464 36.2367 19.5871 35.999C19.8279 35.7582 20.1326 35.6379 20.5014 35.6379C20.8731 35.6379 21.1794 35.7582 21.4202 35.999C21.6609 36.2367 21.7813 36.5384 21.7813 36.904C21.7813 37.2636 21.6609 37.5623 21.4202 37.8C21.1794 38.0377 20.8731 38.1565 20.5014 38.1565C20.1326 38.1565 19.8279 38.0377 19.5871 37.8C19.3464 37.5623 19.226 37.2636 19.226 36.904ZM19.6877 36.904C19.6877 37.1387 19.7624 37.3337 19.9117 37.4891C20.0641 37.6415 20.2606 37.7177 20.5014 37.7177C20.7421 37.7177 20.9387 37.6415 21.091 37.4891C21.2465 37.3337 21.3242 37.1387 21.3242 36.904C21.3242 36.6663 21.2465 36.4698 21.091 36.3144C20.9387 36.1559 20.7421 36.0767 20.5014 36.0767C20.2606 36.0767 20.0641 36.1559 19.9117 36.3144C19.7624 36.4698 19.6877 36.6663 19.6877 36.904ZM23.3865 36.8949C23.3865 36.5323 23.4917 36.2367 23.7019 36.0081C23.9122 35.7765 24.1895 35.6607 24.5339 35.6607C24.8356 35.6607 25.09 35.7643 25.2973 35.9715V34.8471H25.7727V38.0925H25.2973V37.8137C25.0961 38.0301 24.8417 38.1382 24.5339 38.1382C24.1926 38.1382 23.9153 38.0224 23.7019 37.7908C23.4917 37.5592 23.3865 37.2606 23.3865 36.8949ZM23.8711 36.8949C23.8711 37.1417 23.9427 37.3413 24.0859 37.4937C24.2291 37.6461 24.4196 37.7223 24.6573 37.7223C24.9041 37.7223 25.1175 37.6324 25.2973 37.4526V36.3555C25.2211 36.2763 25.1251 36.2108 25.0093 36.159C24.8965 36.1041 24.7792 36.0767 24.6573 36.0767C24.4196 36.0767 24.2291 36.1529 24.0859 36.3052C23.9427 36.4546 23.8711 36.6511 23.8711 36.8949ZM28.538 37.4891L28.7254 37.832C28.4603 38.0483 28.1297 38.1565 27.7335 38.1565C27.3038 38.1565 26.9808 38.0407 26.7644 37.8091C26.5481 37.5745 26.4399 37.2728 26.4399 36.904C26.4399 36.5445 26.5542 36.2443 26.7827 36.0035C27.0143 35.7597 27.3175 35.6379 27.6924 35.6379C28.0398 35.6379 28.3034 35.7323 28.4832 35.9213C28.666 36.1072 28.7574 36.3448 28.7574 36.6344C28.7574 36.8081 28.7407 36.9482 28.7072 37.0549H26.929C26.9534 37.2713 27.0326 37.4419 27.1667 37.5669C27.3038 37.6918 27.4973 37.7543 27.7472 37.7543C28.0398 37.7543 28.3034 37.6659 28.538 37.4891ZM28.2912 36.6846C28.2973 36.6359 28.3003 36.5932 28.3003 36.5566C28.3003 36.4073 28.2485 36.2839 28.1449 36.1864C28.0413 36.0858 27.8874 36.0355 27.6832 36.0355C27.4699 36.0355 27.2962 36.098 27.1621 36.223C27.0311 36.3479 26.9564 36.5018 26.9381 36.6846H28.2912ZM30.5326 34.8471H31.008V37.4343C31.008 37.6324 31.0872 37.7314 31.2457 37.7314C31.3371 37.7314 31.4301 37.704 31.5245 37.6491L31.5611 38.0285C31.4087 38.1017 31.2457 38.1382 31.072 38.1382C30.7124 38.1382 30.5326 37.9402 30.5326 37.544V34.8471ZM32.1466 36.2367L32.0597 35.8253C32.3218 35.7156 32.6128 35.6607 32.9328 35.6607C33.2558 35.6607 33.4966 35.7445 33.655 35.9121C33.8165 36.0767 33.8973 36.2961 33.8973 36.5704V38.0925H33.4219V37.832C33.2055 38.0362 32.9511 38.1382 32.6585 38.1382C32.4056 38.1382 32.206 38.0742 32.0597 37.9463C31.9165 37.8183 31.8449 37.643 31.8449 37.4206C31.8449 37.1433 31.9454 36.933 32.1466 36.7898C32.3507 36.6465 32.625 36.5749 32.9694 36.5749C33.1248 36.5749 33.2756 36.5902 33.4219 36.6206V36.5932C33.4219 36.2428 33.2467 36.0675 32.8962 36.0675C32.6281 36.0675 32.3782 36.1239 32.1466 36.2367ZM32.3203 37.3703C32.3203 37.4983 32.3629 37.5958 32.4483 37.6628C32.5366 37.7268 32.6555 37.7588 32.8048 37.7588C33.0334 37.7588 33.2391 37.6781 33.4219 37.5166V36.9635C33.3122 36.936 33.1934 36.9223 33.0654 36.9223C32.8429 36.9223 32.6631 36.9604 32.526 37.0366C32.3888 37.1097 32.3203 37.221 32.3203 37.3703ZM35.8368 38.0925V34.9842H37.1898C37.5494 34.9842 37.8328 35.068 38.04 35.2356C38.2503 35.4002 38.3554 35.6485 38.3554 35.9807C38.3554 36.2397 38.2716 36.4561 38.104 36.6298C37.9364 36.8035 37.7246 36.9071 37.4686 36.9406L38.5566 38.0148V38.0925H38.008L36.879 36.9498H36.3122V38.0925H35.8368ZM37.2401 35.4002H36.3122V36.5704H37.2401C37.4199 36.5704 37.5677 36.5186 37.6835 36.4149C37.8023 36.3113 37.8618 36.1696 37.8618 35.9898C37.8618 35.7978 37.8039 35.6516 37.6881 35.551C37.5723 35.4504 37.4229 35.4002 37.2401 35.4002ZM40.9657 37.4891L41.1531 37.832C40.888 38.0483 40.5573 38.1565 40.1612 38.1565C39.7315 38.1565 39.4085 38.0407 39.1921 37.8091C38.9757 37.5745 38.8675 37.2728 38.8675 36.904C38.8675 36.5445 38.9818 36.2443 39.2104 36.0035C39.442 35.7597 39.7452 35.6379 40.12 35.6379C40.4674 35.6379 40.731 35.7323 40.9108 35.9213C41.0937 36.1072 41.1851 36.3448 41.1851 36.6344C41.1851 36.8081 41.1683 36.9482 41.1348 37.0549H39.3566C39.381 37.2713 39.4603 37.4419 39.5943 37.5669C39.7315 37.6918 39.925 37.7543 40.1749 37.7543C40.4674 37.7543 40.731 37.6659 40.9657 37.4891ZM40.7188 36.6846C40.7249 36.6359 40.728 36.5932 40.728 36.5566C40.728 36.4073 40.6762 36.2839 40.5726 36.1864C40.4689 36.0858 40.3151 36.0355 40.1109 36.0355C39.8976 36.0355 39.7239 36.098 39.5898 36.223C39.4587 36.3479 39.3841 36.5018 39.3658 36.6846H40.7188ZM44.2345 36.904C44.2345 37.2667 44.1294 37.5638 43.9191 37.7954C43.7089 38.024 43.4331 38.1382 43.0918 38.1382C42.787 38.1382 42.5326 38.0362 42.3284 37.832V38.9519H41.853V35.7018H42.3284V35.9853C42.5295 35.7689 42.784 35.6607 43.0918 35.6607C43.4331 35.6607 43.7089 35.7765 43.9191 36.0081C44.1294 36.2397 44.2345 36.5384 44.2345 36.904ZM43.7546 36.904C43.7546 36.6572 43.683 36.4576 43.5397 36.3052C43.3965 36.1529 43.206 36.0767 42.9683 36.0767C42.8373 36.0767 42.7139 36.1041 42.5981 36.159C42.4823 36.2138 42.3924 36.2793 42.3284 36.3555V37.4526C42.3985 37.5288 42.4914 37.5928 42.6072 37.6446C42.723 37.6964 42.8434 37.7223 42.9683 37.7223C43.206 37.7223 43.3965 37.6476 43.5397 37.4983C43.683 37.3459 43.7546 37.1478 43.7546 36.904ZM47.1327 38.0925H46.6573V37.7223C46.4623 37.9965 46.1788 38.1337 45.8071 38.1337C45.4962 38.1337 45.2616 38.0362 45.1031 37.8411C44.9477 37.6461 44.87 37.3916 44.87 37.0777V35.7018H45.3454V37.0046C45.3454 37.2179 45.3957 37.3871 45.4962 37.512C45.5998 37.6339 45.7553 37.6948 45.9625 37.6948C46.1362 37.6948 46.284 37.6446 46.4059 37.544C46.5278 37.4434 46.6116 37.3215 46.6573 37.1783V35.7018H47.1327V38.0925ZM46.6801 34.7054L46.2413 35.3682H45.8299L46.2002 34.7054H46.6801ZM50.0215 36.0081C50.2348 36.2367 50.3414 36.5323 50.3414 36.8949C50.3414 37.2575 50.2348 37.5562 50.0215 37.7908C49.8112 38.0224 49.5354 38.1382 49.1941 38.1382C48.8802 38.1382 48.6242 38.0285 48.4262 37.8091V38.0925H47.9508V34.8471H48.4262V35.9761C48.6303 35.7658 48.8863 35.6607 49.1941 35.6607C49.5354 35.6607 49.8112 35.7765 50.0215 36.0081ZM49.8569 36.8949C49.8569 36.6511 49.7853 36.4546 49.6421 36.3052C49.4988 36.1529 49.3084 36.0767 49.0707 36.0767C48.9457 36.0767 48.8254 36.1041 48.7096 36.159C48.5968 36.2138 48.5023 36.2809 48.4262 36.3601V37.4526C48.4962 37.5257 48.5892 37.5897 48.705 37.6446C48.8208 37.6964 48.9427 37.7223 49.0707 37.7223C49.3084 37.7223 49.4988 37.6461 49.6421 37.4937C49.7853 37.3413 49.8569 37.1417 49.8569 36.8949ZM51.0133 34.8471H51.4886V37.4343C51.4886 37.6324 51.5679 37.7314 51.7263 37.7314C51.8178 37.7314 51.9107 37.704 52.0052 37.6491L52.0417 38.0285C51.8894 38.1017 51.7263 38.1382 51.5526 38.1382C51.193 38.1382 51.0133 37.9402 51.0133 37.544V34.8471ZM52.4626 35.0208C52.4626 34.8501 52.5602 34.7648 52.7552 34.7648C52.9441 34.7648 53.0386 34.8501 53.0386 35.0208C53.0386 35.1945 52.9441 35.2813 52.7552 35.2813C52.5602 35.2813 52.4626 35.1945 52.4626 35.0208ZM52.5129 38.0925V35.7018H52.9883V38.0925H52.5129ZM54.0086 37.8C53.7709 37.5592 53.6521 37.2575 53.6521 36.8949C53.6521 36.5323 53.7709 36.2321 54.0086 35.9944C54.2493 35.7567 54.5571 35.6379 54.932 35.6379C55.2885 35.6379 55.5887 35.7476 55.8325 35.967L55.5948 36.3189C55.4211 36.1574 55.2062 36.0767 54.9502 36.0767C54.7095 36.0767 54.5129 36.1544 54.3606 36.3098C54.2113 36.4622 54.1366 36.6572 54.1366 36.8949C54.1366 37.1356 54.2113 37.3337 54.3606 37.4891C54.5129 37.6415 54.7095 37.7177 54.9502 37.7177C55.2062 37.7177 55.4211 37.6369 55.5948 37.4754L55.8325 37.8274C55.5887 38.0468 55.2885 38.1565 54.932 38.1565C54.5571 38.1565 54.2493 38.0377 54.0086 37.8ZM56.5466 36.2367L56.4597 35.8253C56.7218 35.7156 57.0128 35.6607 57.3328 35.6607C57.6558 35.6607 57.8966 35.7445 58.055 35.9121C58.2165 36.0767 58.2973 36.2961 58.2973 36.5704V38.0925H57.8219V37.832C57.6055 38.0362 57.3511 38.1382 57.0585 38.1382C56.8056 38.1382 56.606 38.0742 56.4597 37.9463C56.3165 37.8183 56.2449 37.643 56.2449 37.4206C56.2449 37.1433 56.3454 36.933 56.5466 36.7898C56.7507 36.6465 57.025 36.5749 57.3694 36.5749C57.5248 36.5749 57.6756 36.5902 57.8219 36.6206V36.5932C57.8219 36.2428 57.6467 36.0675 57.2962 36.0675C57.028 36.0675 56.7782 36.1239 56.5466 36.2367ZM56.7203 37.3703C56.7203 37.4983 56.7629 37.5958 56.8482 37.6628C56.9366 37.7268 57.0555 37.7588 57.2048 37.7588C57.4333 37.7588 57.639 37.6781 57.8219 37.5166V36.9635C57.7122 36.936 57.5933 36.9223 57.4653 36.9223C57.2429 36.9223 57.0631 36.9604 56.926 37.0366C56.7888 37.1097 56.7203 37.221 56.7203 37.3703Z" fill="white"/>
</svg>
