<svg width="25" height="25" viewBox="0 0 25 25" fill="none" xmlns="http://www.w3.org/2000/svg">
<path d="M13.2894 9.69503C12.6736 9.63421 12.054 9.76522 11.5156 10.0701C10.9771 10.375 10.546 10.8389 10.2814 11.3983C10.0167 11.9576 9.93143 12.5851 10.0372 13.1948C10.1429 13.8045 10.4346 14.3666 10.8721 14.8042C11.3097 15.2417 11.8718 15.5334 12.4815 15.6391C13.0912 15.7449 13.7187 15.6596 14.278 15.3949C14.8374 15.1303 15.3013 14.6992 15.6062 14.1607C15.9111 13.6223 16.0421 13.0027 15.9813 12.3869C15.9119 11.6966 15.606 11.0514 15.1155 10.5608C14.6249 10.0702 13.9797 9.76436 13.2894 9.69503V9.69503ZM20.5162 12.6819C20.5143 13.0081 20.4903 13.3338 20.4444 13.6569L22.5646 15.3198C22.6569 15.3963 22.7191 15.5031 22.7402 15.6212C22.7612 15.7392 22.7397 15.8609 22.6795 15.9646L20.6737 19.435C20.6128 19.5377 20.5176 19.6156 20.4049 19.655C20.2922 19.6944 20.1691 19.6927 20.0575 19.6502L17.9519 18.8024C17.8357 18.7561 17.71 18.7394 17.5858 18.7537C17.4617 18.7681 17.343 18.813 17.2404 18.8844C16.9191 19.1057 16.5814 19.3023 16.2303 19.4725C16.1199 19.5262 16.0244 19.6062 15.9523 19.7054C15.8802 19.8047 15.8336 19.9203 15.8167 20.0418L15.501 22.2877C15.4803 22.4063 15.419 22.514 15.3277 22.5925C15.2363 22.6709 15.1206 22.7152 15.0002 22.7178H10.9887C10.8703 22.7157 10.7561 22.6734 10.665 22.5978C10.5738 22.5222 10.5112 22.4178 10.4873 22.3018L10.1722 20.0592C10.1545 19.9363 10.1067 19.8197 10.0331 19.7197C9.95943 19.6197 9.86223 19.5395 9.75011 19.4861C9.39943 19.3168 9.06288 19.1197 8.74371 18.8966C8.64152 18.8255 8.52325 18.781 8.39954 18.767C8.27584 18.753 8.1506 18.77 8.0351 18.8164L5.92992 19.6638C5.81835 19.7063 5.69538 19.7081 5.58265 19.6688C5.46992 19.6295 5.37468 19.5517 5.31369 19.4491L3.30792 15.9787C3.24762 15.875 3.22607 15.7533 3.24711 15.6352C3.26815 15.5171 3.33042 15.4103 3.42282 15.3339L5.21474 13.927C5.31291 13.849 5.39007 13.7478 5.43921 13.6325C5.48834 13.5172 5.50791 13.3915 5.49612 13.2667C5.47924 13.0711 5.46892 12.876 5.46892 12.6805C5.46892 12.4849 5.47877 12.2926 5.49612 12.1013C5.50662 11.9773 5.4861 11.8526 5.4364 11.7385C5.38671 11.6243 5.30941 11.5244 5.21146 11.4476L3.42048 10.0407C3.32957 9.96379 3.26862 9.85738 3.2483 9.74008C3.22798 9.62279 3.24958 9.50208 3.30933 9.39911L5.3151 5.92876C5.37601 5.82605 5.47123 5.74814 5.58396 5.70876C5.69669 5.66938 5.81971 5.67106 5.93132 5.7135L8.03698 6.56139C8.1531 6.60763 8.27887 6.62433 8.40303 6.61001C8.52719 6.59569 8.64586 6.55078 8.7484 6.47933C9.06976 6.25803 9.40745 6.06144 9.75856 5.89124C9.86894 5.83759 9.96442 5.75759 10.0366 5.6583C10.1087 5.559 10.1553 5.44348 10.1722 5.32192L10.4878 3.07604C10.5085 2.95743 10.5698 2.8497 10.6612 2.77126C10.7525 2.69282 10.8683 2.64855 10.9887 2.646H15.0002C15.1186 2.64804 15.2328 2.69036 15.3239 2.76597C15.415 2.84159 15.4777 2.94598 15.5015 3.06197L15.8167 5.30457C15.8344 5.42747 15.8821 5.54409 15.9558 5.64407C16.0294 5.74405 16.1266 5.82428 16.2387 5.87764C16.5894 6.04692 16.926 6.24405 17.2451 6.46713C17.3473 6.53823 17.4656 6.58279 17.5893 6.59679C17.713 6.61079 17.8382 6.59379 17.9537 6.54733L20.0589 5.6999C20.1705 5.65742 20.2935 5.65567 20.4062 5.69496C20.5189 5.73425 20.6142 5.81207 20.6752 5.91469L22.6809 9.38504C22.7412 9.48872 22.7628 9.61044 22.7417 9.72853C22.7207 9.84661 22.6584 9.9534 22.566 10.0299L20.7741 11.4368C20.6755 11.5144 20.5979 11.6155 20.5483 11.7309C20.4988 11.8462 20.4789 11.9721 20.4904 12.0971C20.5059 12.2912 20.5162 12.4863 20.5162 12.6819Z" stroke="white" stroke-width="1.50069" stroke-linecap="round" stroke-linejoin="round"/>
</svg>
