<svg width="26" height="26" viewBox="0 0 26 26" fill="none" xmlns="http://www.w3.org/2000/svg">
<path d="M16.0778 19.2932V20.097C16.0778 20.9499 15.739 21.7677 15.136 22.3708C14.533 22.9738 13.7151 23.3126 12.8623 23.3126C12.0095 23.3126 11.1916 22.9738 10.5886 22.3708C9.98553 21.7677 9.64675 20.9499 9.64675 20.097V19.2932M21.4879 17.6568C20.1977 16.0776 19.2868 15.2737 19.2868 10.9202C19.2868 6.93346 17.251 5.5131 15.5754 4.82327C15.3528 4.73183 15.1433 4.52181 15.0755 4.29321C14.7816 3.29288 13.9576 2.41162 12.8623 2.41162C11.767 2.41162 10.9425 3.29338 10.6516 4.29421C10.5838 4.52533 10.3743 4.73183 10.1517 4.82327C8.47409 5.51411 6.44026 6.92944 6.44026 10.9202C6.43775 15.2737 5.52685 16.0776 4.23662 17.6568C3.70204 18.3109 4.1703 19.2932 5.10532 19.2932H20.6243C21.5543 19.2932 22.0195 18.3079 21.4879 17.6568Z" stroke="white" stroke-width="1.60777" stroke-linecap="round" stroke-linejoin="round"/>
</svg>
